<?xml version="1.0" encoding="utf-8"?>
<!-- Generator: Adobe Illustrator 24.2.3, SVG Export Plug-In . SVG Version: 6.00 Build 0)  -->
<svg version="1.1" id="Layer_1" xmlns="http://www.w3.org/2000/svg" xmlns:xlink="http://www.w3.org/1999/xlink" x="0px" y="0px"
	 viewBox="0 0 1366 768" style="enable-background:new 0 0 1366 768;" xml:space="preserve">
<style type="text/css">
	.st0{display:none;opacity:0.5;fill:#1A759F;enable-background:new    ;}
	.st1{opacity:0.5;fill:#1A759F;}
</style>
<path class="st0" d="M582.5-19.5c0,0,92-9,113,20s-20,87,51,141s160,10,308,34c158.19,25.65,224,89,271,176s40,196,40,196l17-296
	v-283L582.5-19.5z"/>
<path class="st1" d="M182.29-31.5c0,0-8.87,31.5,151.8,31.5c277,0,352.79,186.27,698.39,186.27S1404.23,0,1404.23,0
	c200.08,0,388.04,0,388.04,0l-309.22-89.6H303.77L182.29-31.5z"/>
</svg>
