<?xml version="1.0" encoding="utf-8"?>
<!-- Generator: Adobe Illustrator 24.2.3, SVG Export Plug-In . SVG Version: 6.00 Build 0)  -->
<svg version="1.1" id="Layer_1" xmlns="http://www.w3.org/2000/svg" xmlns:xlink="http://www.w3.org/1999/xlink" x="0px" y="0px"
	 viewBox="0 0 1000 1500" style="enable-background:new 0 0 1000 1500;" xml:space="preserve">
<style type="text/css">
	.st0{fill:#FFFFFF;stroke:#000000;stroke-width:4;stroke-miterlimit:10;}
</style>
<g>
	<g>
		<path class="st0" d="M11.1,714c1.4-14,2.7-27,3.9-40.1c0.9-9,1.7-17.9,2.5-26.9c1-12,2-23.9,3.1-35.9c1.1-12,2.4-23.9,3.5-35.8
			c1-10.8,1.9-21.7,2.9-32.5c0.9-9.7,1.8-19.4,2.6-29.1c0.2-2,1.1-3.5,2.8-4.5c2.3-1.3,4.6-2.6,6.9-3.8
			c61.6-32.8,123.2-65.5,184.8-98.3c72.8-38.8,145.6-77.8,218.4-116.6c126.4-67.5,252.8-135,379.2-202.4
			c50.3-26.8,100.6-53.7,150.9-80.6c4.6-2.5,9.3-4.8,14-7.3c0.9-0.4,2.5,0.4,2.5,1.4c-0.3,6-0.5,12-1,17.9
			c-1,10.8-2.3,21.6-3.4,32.4c-1.4,13.8-2.8,27.6-4.2,41.4c-1.1,10.8-2,21.7-3,32.5c-1.1,11.2-2.4,22.4-3.5,33.6
			c-1.1,11.2-2.1,22.4-3.2,33.6c-0.6,6.3-1.4,12.7-2.1,19c-0.2,1.6-1,2.8-2.4,3.6c-3.6,2-7.2,4.1-10.8,6
			c-83,44.3-166.1,88.7-249.2,133c-37.7,20.1-75.4,40.3-113.1,60.5c-9.3,5-8.7,4.1-9.6,14.5c-1.1,12.7-2.5,25.4-3.8,38.1
			c-0.9,8.6-1.7,17.2-2.5,25.8c-1,11.2-2,22.4-3,33.6c-1,10.8-2.3,21.6-3.4,32.4c-0.8,8.2-1.7,16.4-2.5,24.6
			c-1,10.8-1.9,21.7-3,32.5c-1.1,11.6-2.4,23.1-3.5,34.7c-0.8,8.2-1.7,16.4-2.5,24.6c-1,10.8-2,21.7-3,32.5
			c-1.1,11.2-2.4,22.4-3.5,33.6c-0.8,8.2-1.7,16.4-2.5,24.6c-1,10.8-2,21.7-3,32.5c-1.1,11.2-2.4,22.4-3.5,33.6
			c-0.9,8.6-1.8,17.2-2.5,25.8c-1.1,13.1-2,26.2-3.1,39.3c-1.1,12.7-2.3,25.4-3.5,38.1c-0.9,9.7-1.7,19.4-2.5,29.2
			c-1,12.7-1.9,25.4-3,38.1c-1.1,13.1-2.3,26.2-3.5,39.2c-0.1,1.5-0.3,3-0.4,4.5c-1.2,15.6-1.1,18.3,0.3,18.5
			c0.4,0.1,0.8,0.3,1.1,0.2c5-2.5,10.1-5,15-7.7c44-23.5,88-47,132-70.5c71.8-38.3,143.6-76.7,215.4-115c1.3-0.7,2.6-1.5,4-2.1
			c3-1.3,5.5-4.1,9.2-3.3c1.1,3,0.4,5.9,0,8.9c-1,9.7-2.2,19.4-3.2,29.1c-1.1,11.2-2,22.4-3.1,33.6c-1.1,10.8-2.3,21.6-3.4,32.4
			c-0.8,8.2-1.7,16.4-2.5,24.6c-1,10.8-2,21.7-3,32.5c-1.1,11.2-2.4,22.4-3.5,33.6c-0.5,4.8-0.9,9.7-1.2,14.6
			c-0.2,3.4-1.8,5.6-4.7,7c-2.7,1.3-5.3,2.8-7.9,4.2c-56.2,30.1-112.4,60.2-168.6,90.4c-13.8,7.4-11,4.1-12.5,18.4
			c-1.8,18.3-3.9,36.5-5.7,54.8c-1.1,11.2-2,22.4-3.1,33.6c-1.1,10.8-2.3,21.6-3.5,32.4c-0.9,8.6-1.8,17.2-2.6,25.8
			c-1,11.2-2,22.4-3.1,33.6c-0.6,6.7-1.4,13.4-2.1,20.1c-0.2,2-1.1,3.6-2.8,4.6c-1.6,1-3.3,1.9-4.9,2.8c-44,23.5-88,47-132,70.4
			c-14.2,7.6-28.5,15.1-42.8,22.6c-2,1.1-4,2.1-6,3.1c-1,0.5-2.5-0.2-2.5-1.2c0.2-4.5,0.3-9,0.7-13.4c1.1-12.3,2.5-24.6,3.7-36.9
			c1.2-11.9,2.5-23.9,3.7-35.8c0.8-8.2,1.7-16.4,2.4-24.6c1-11.2,2-22.4,3.1-33.6s2.3-22.4,3.5-33.6c0.8-8.2,1.6-16.4,2.5-24.6
			c1.8-17.2,3.5-34.3,5.5-51.4c2.6-22.3,5.4-44.7,8-67c1.9-16,3.5-32.1,5.4-48.1c1.8-16,3.9-32,5.7-48c0.4-3.7,0.5-7.4,0.6-11.2
			c0-0.9-1.6-1.8-2.5-1.3c-3.7,1.8-7.4,3.7-11,5.6c-47.3,25.3-94.6,50.7-141.8,76c-9.9,5.3-19.8,10.7-29.8,15.9c-2,1.1-4,2-6.1,2.9
			c-0.8,0.4-2.4-0.8-2.4-1.6c0.2-4.5,0.3-9,0.7-13.4c1.3-13.4,2.7-26.9,4-40.3c1.1-10.8,2.3-21.6,3.4-32.4
			c0.9-8.6,1.8-17.2,2.6-25.8c1.1-11.2,2-22.4,3.1-33.6c1.1-10.8,2.3-21.6,3.5-32.4c0.9-8.2,1.7-16.4,2.5-24.6
			c1.8-18.7,3.5-37.3,5.4-56c1.8-17.9,3.8-35.8,5.7-53.7c0.8-7.8,1.6-15.7,2.4-23.5c1-10.8,2-21.7,3.1-32.5s2.3-21.6,3.5-32.4
			c0.9-8.6,1.8-17.2,2.6-25.7c1.1-11.2,2-22.4,3.1-33.6c1.1-10.8,2.3-21.6,3.4-32.4c0.9-8.6,1.7-17.2,2.5-25.8c1-11.2,2-22.4,3-33.6
			c1.1-10.8,2.3-21.6,3.4-32.4c1-9.3,1.8-18.7,2.7-28c0.8-7.8,1.6-15.7,2.3-23.5c0.2-2.2,0-4.5,0-6.7c0-0.9-1.6-1.7-2.6-1.2
			c-2.4,1.1-4.7,2.2-7.1,3.5c-15.2,8.1-30.5,16.2-45.7,24.3c-57.3,30.5-114.6,60.9-171.8,91.5c-47.3,25.2-94.6,50.6-141.9,75.8
			c-3,1.6-6,3-9.1,4.5c-0.7,0.4-2.4-0.8-2.4-1.6C11.1,719,11.1,716.1,11.1,714z"/>
		<path class="st0" d="M734.3,740.9c0.9-9.8,1.8-19.9,2.8-30c1.3-13,2.6-26.1,4-39.1c1.2-11.2,2.4-22.3,3.5-33.5
			c0.9-8.6,1.8-17.2,2.6-25.7c1-10.8,1.9-21.7,3-32.5c1.4-14.5,3-29.1,4.4-43.6c0.2-2.1,1.4-3.4,3.1-4.3c1.6-0.9,3.3-1.8,4.9-2.7
			c58.8-30.7,117.6-61.5,176.4-92.2c2-1,4-1.9,6.1-2.9c1-0.5,2.6,0.3,2.5,1.2c-0.1,4.1-0.1,8.2-0.4,12.3c-0.3,5.2-0.9,10.5-1.3,15.7
			c-1.3,16.8-2.6,33.6-3.9,50.4c-0.1,1.5-0.2,3-0.3,4.5c-1.4,19.1-2.9,38.1-4.3,57.2c-1,13.1-1.8,26.2-2.8,39.3
			c-0.6,8.2-1.4,16.4-1.9,24.7c-0.2,3-1.7,4.8-4.2,6c-2,1-4,2.2-5.9,3.2C863.4,680.4,804.2,712,745,743.5c-3,1.6-6,2.9-9.1,4.2
			c-0.8,0.3-1.5-0.3-1.6-1.1C734.3,744.8,734.3,742.9,734.3,740.9z"/>
	</g>
</g>
</svg>
