<?xml version="1.0" encoding="utf-8"?>
<!-- Generator: Adobe Illustrator 24.2.3, SVG Export Plug-In . SVG Version: 6.00 Build 0)  -->
<svg version="1.1" id="Layer_1" xmlns="http://www.w3.org/2000/svg" xmlns:xlink="http://www.w3.org/1999/xlink" x="0px" y="0px"
	 viewBox="0 0 1366 768" style="enable-background:new 0 0 1366 768;" xml:space="preserve">
<style type="text/css">
	.st0{display:none;}
	.st1{display:inline;fill:#FFFFFF;}
	.st2{font-family:'Monoton-Regular';}
	.st3{font-size:500px;}
	.st4{font-size:88px;}
	.st5{font-size:67px;}
	.st6{font-size:64px;}
	.st7{fill:#FFFFFF;}
</style>
<g class="st0">
	<text transform="matrix(1 0 0 1 0.1484 519.3086)" class="st1 st2 st3">T</text>
	<text transform="matrix(1 0 0 1 216.4995 620.1172)" class="st1 st2 st3">C</text>
	<text transform="matrix(1 0 0 1 639.5625 720.1426)" class="st1 st2 st3">F</text>
	<text transform="matrix(1 0 0 1 287.7686 177.1265)" class="st1 st2 st4">ransnational</text>
	<text transform="matrix(1 0 0 1 621.9468 271.4518)" class="st1 st2 st5">ommunity</text>
	<text transform="matrix(6.123234e-17 1 -1 6.123234e-17 999.4395 312.8021)" class="st1 st2 st6">ederation</text>
</g>
<g>
	<g>
		<path class="st7" d="M0,25.8V3.6h332.7v22.2H0z M0,70.2V48h332.7v22.2C332.7,70.2,0,70.2,0,70.2z M0,114.5V92.3h332.7v22.2H244
			v399.3h-22.2V114.5h-22.2v399.3h-22.2V114.5h-22.2v399.3h-22.2V114.5H111v399.3H88.7V114.5H0z"/>
	</g>
	<g>
		<path class="st7" d="M777.9,230l-18.5,12c-23.4-34.3-53.7-61.4-90.7-81.3s-77.1-29.9-120-29.9c-34.5,0-67.5,6.7-99,20.2
			c-31.5,13.5-58.7,31.6-81.5,54.4c-22.8,22.8-40.9,50-54.4,81.5c-13.5,31.5-20.2,64.5-20.2,99c0,34.5,6.7,67.5,20.2,99
			c13.4,31.5,31.6,58.7,54.4,81.5c22.8,22.8,50,40.9,81.5,54.4c31.5,13.5,64.5,20.2,99,20.2c42.9,0,83-10.1,120.2-30.2
			c37.2-20.1,67.5-47.3,90.9-81.6l17.9,13.6c-25.5,37-58.3,66.3-98.6,88c-40.3,21.7-83.7,32.5-130.3,32.5c-37.6,0-73.5-7.3-107.7-22
			c-34.2-14.7-63.7-34.4-88.4-59.2c-24.8-24.7-44.5-54.2-59.2-88.4c-14.7-34.2-22-70.1-22-107.7s7.3-73.5,22-107.7
			c14.7-34.2,34.4-63.7,59.2-88.4c24.7-24.7,54.2-44.5,88.4-59.2c34.2-14.7,70.1-22,107.7-22c46.8,0,90.4,10.9,130.6,32.7
			C719.6,163.1,752.5,192.6,777.9,230z M741.6,255.3l-18.5,12c-19.3-28.3-44.3-50.8-75-67.3c-30.7-16.5-63.8-24.8-99.3-24.8
			c-28.6,0-55.9,5.5-82,16.6c-26.1,11.1-48.5,26-67.3,44.8c-18.8,18.8-33.7,41.2-44.8,67.3c-11.1,26.1-16.6,53.4-16.6,82
			s5.5,55.9,16.6,82c11.1,26.1,26,48.5,44.8,67.3c18.8,18.8,41.2,33.7,67.3,44.8c26.1,11.1,53.4,16.6,82,16.6
			c35.7,0,68.9-8.3,99.5-25c30.6-16.6,55.6-39.1,74.9-67.5l17.9,13.2c-21.4,31.2-48.9,55.9-82.7,74.1
			c-33.8,18.2-70.3,27.3-109.5,27.3c-42.1,0-81-10.4-116.8-31.3c-35.7-20.8-64-49.1-84.9-84.9c-20.8-35.7-31.3-74.7-31.3-116.8
			c0-42.1,10.4-81,31.3-116.8c20.8-35.7,49.1-64,84.9-84.9c35.7-20.8,74.7-31.3,116.8-31.3c39.4,0,76.1,9.2,110,27.6
			C692.6,199,720.2,223.9,741.6,255.3z M704.6,279.9l-18.5,12c-15.2-22.2-34.9-39.8-59-52.8c-24.1-13-50.3-19.6-78.4-19.6
			c-30.2,0-58,7.4-83.5,22.3c-25.5,14.9-45.7,35.1-60.6,60.6c-14.9,25.5-22.3,53.3-22.3,83.5c0,30.2,7.4,58,22.3,83.5
			c14.9,25.5,35.1,45.7,60.6,60.6c25.5,14.9,53.3,22.3,83.5,22.3c28.1,0,54.3-6.6,78.6-19.7s43.9-30.9,59.2-53.3l18.2,12.6
			c-17.3,25.5-39.6,45.6-67,60.4c-27.4,14.8-57,22.2-88.9,22.2c-34.1,0-65.6-8.4-94.6-25.3c-29-16.9-51.9-39.7-68.7-68.7
			c-16.9-29-25.3-60.5-25.3-94.6s8.4-65.6,25.3-94.6c16.9-29,39.7-51.9,68.7-68.7c29-16.9,60.5-25.3,94.6-25.3
			c31.8,0,61.5,7.4,88.9,22.2C665,234.3,687.4,254.5,704.6,279.9z M668,305.2l-18.2,12c-11.1-16.4-25.5-29.4-43.3-39
			c-17.8-9.5-37-14.3-57.8-14.3c-33.7,0-62.4,11.9-86.3,35.7c-23.8,23.8-35.7,52.6-35.7,86.3c0,33.7,11.9,62.4,35.7,86.3
			c23.8,23.8,52.6,35.7,86.3,35.7c20.7,0,40-4.8,57.8-14.5c17.8-9.6,32.2-22.7,43.3-39.1l17.9,12.9c-13.2,19.3-30.2,34.6-51.1,45.9
			c-21,11.3-43.6,16.9-67.8,16.9c-19.5,0-38.2-3.8-55.9-11.4c-17.8-7.6-33.1-17.9-46.1-30.8c-12.9-12.9-23.2-28.3-30.8-46.1
			c-7.6-17.8-11.4-36.4-11.4-55.9s3.8-38.2,11.4-55.9c7.6-17.8,17.9-33.1,30.8-46.1c12.9-12.9,28.3-23.2,46.1-30.8
			c17.8-7.6,36.4-11.4,55.9-11.4c24.4,0,47.1,5.7,68.1,17.1C637.8,270.3,654.8,285.7,668,305.2z"/>
	</g>
	<g>
		<path class="st7" d="M838.9,767.2h-22.2V257h22.2V767.2z M883.3,767.2h-22.2V257h22.2V767.2z M927.6,767.2h-22.2V257h22.2V767.2z
			 M972,767.2h-22.2V257h245.5v22.2H972v22.2h223.4v22.2H972v22.2h223.4v22.2H972v110.9h212.9V501H972v22.2h212.9v22.2H972v22.2
			h212.9v22.2H972V767.2z"/>
	</g>
	<g>
		<path class="st7" d="M378.7,60.3h23.5c4.8,0,9.3-1.2,13.3-3.5c4.1-2.3,7.3-5.5,9.8-9.6s3.7-8.7,3.7-13.7c0-4.5-1.2-8.8-3.6-12.7
			s-5.7-7.1-9.8-9.5c-4.1-2.4-8.6-3.5-13.3-3.5h-49.1V82h-3.9V3.9h53c4.1,0,8,0.8,11.8,2.4c3.8,1.6,7,3.8,9.8,6.4
			c2.7,2.7,5,5.8,6.6,9.5c1.7,3.6,2.5,7.4,2.5,11.3c0,6.3-1.4,11.8-4.3,16.6c-2.9,4.7-6.8,8.3-11.7,10.8l8.2,21.1H421l-7.7-19.6
			c-1,0.3-2.1,0.6-3.4,1l7.3,18.6H413l-7.2-17.9c-1.1,0.1-2.3,0.2-3.5,0.2l6.9,17.8H405l-6.8-17.8h-3.5l6.5,17.7h-4.1l-6.6-17.8
			h-11.8L378.7,60.3L378.7,60.3z M378.7,52.5h23.5c5.2,0,9.7-1.8,13.4-5.3c3.7-3.6,5.6-8.1,5.6-13.7c0-4.7-1.9-8.9-5.7-12.5
			c-3.8-3.6-8.2-5.4-13.3-5.4h-41.3V82H357V11.7h45.2c6.1,0,11.5,2.2,16,6.5c4.6,4.3,6.8,9.4,6.8,15.3c0,6.5-2.3,11.9-6.8,16.3
			s-9.9,6.6-16.1,6.6h-23.5L378.7,52.5L378.7,52.5z M378.7,44.7h23.5c3.1,0,5.7-1,7.9-2.9s3.3-4.7,3.3-8.2c0-2.6-1.1-4.9-3.4-7
			c-2.3-2.1-4.8-3.1-7.8-3.1h-33.5V82h-3.9V19.5h37.4c4,0,7.5,1.4,10.6,4.2c3,2.8,4.5,6.1,4.5,9.8c0,4.6-1.5,8.3-4.4,11
			c-2.9,2.7-6.5,4.1-10.7,4.1h-23.5L378.7,44.7L378.7,44.7z M376.5,82h-3.9V27.3h29.6c2,0,3.8,0.6,5.1,1.8c1.4,1.2,2.1,2.7,2.1,4.4
			c0,4.8-2.4,7.3-7.3,7.3h-23.5v-3.9h23.5c2.2,0,3.4-1.1,3.4-3.4c0-0.6-0.3-1.2-1-1.6c-0.7-0.5-1.4-0.7-2.4-0.7h-25.7L376.5,82
			L376.5,82z"/>
		<path class="st7" d="M524.3,43.5V82h-3.9V43.5c0-7.4-1.7-14-5.1-19.7c-3.4-5.8-8.1-10.3-14-13.4c-5.9-3.2-12.5-4.7-19.8-4.7
			c-7,0-13.4,1.7-19.2,5c-5.8,3.4-10.4,7.9-13.7,13.6c-3.3,5.7-5,12-5,18.7c0,4.4,0.7,8.7,2.1,12.7c1.4,4,3.4,7.5,5.9,10.5
			c2.5,3,5.3,5.6,8.6,7.7c3.2,2.2,6.7,3.8,10.5,4.9c3.8,1.1,7.5,1.7,11.4,1.7c4.3,0,8.3-0.8,12.2-2.4v4c-4,1.4-8.1,2.1-12.4,2.1
			c-4.4,0-8.6-0.6-12.8-1.8c-4.1-1.2-8-3-11.5-5.4c-3.5-2.4-6.6-5.2-9.3-8.5c-2.7-3.3-4.8-7.1-6.3-11.5s-2.3-9-2.3-13.9
			c0-5.6,1.1-10.9,3.2-16c2.1-5.1,5-9.5,8.7-13.2c3.7-3.7,8.1-6.7,13.3-8.8c5.2-2.2,10.8-3.3,16.7-3.3c6,0,11.6,1,16.9,3
			c5.3,2,9.8,4.8,13.7,8.4c3.8,3.6,6.9,8,9.1,13.3C523.2,31.6,524.3,37.3,524.3,43.5z M516.5,43.5V82h-3.9V43.5
			c0-6-1.4-11.3-4.1-15.9c-2.7-4.6-6.5-8.1-11.2-10.6c-4.7-2.5-10-3.7-15.9-3.7c-5.6,0-10.7,1.3-15.3,4c-4.6,2.7-8.3,6.2-10.9,10.8
			c-2.6,4.5-3.9,9.5-3.9,14.8c0,4.6,0.9,8.8,2.5,12.7c1.7,3.8,4,6.9,6.9,9.4c2.9,2.5,6.1,4.4,9.8,5.7c3.7,1.4,7.5,2,11.5,2
			c4.1,0,8.1-0.9,12-2.5v4c-4.1,1.6-8.2,2.3-12.2,2.3c-6.2,0-12-1.4-17.2-4.2c-5.3-2.8-9.4-6.8-12.6-12s-4.7-11-4.7-17.4
			c0-4.6,0.9-8.9,2.6-13c1.7-4.1,4.1-7.7,7.1-10.7c3-3,6.6-5.4,10.9-7.2c4.2-1.8,8.7-2.7,13.4-2.7c6.6,0,12.6,1.4,17.9,4.2
			c5.3,2.8,9.5,6.8,12.6,12C514.9,30.9,516.5,36.8,516.5,43.5z M508.7,43.5V82h-3.9V43.5c0-6.8-2.2-12.3-6.6-16.3
			c-4.4-4-10-6.1-16.9-6.1c-6.4,0-11.7,2.1-15.9,6.3s-6.4,9.4-6.4,15.5c0,3.7,0.6,7,1.9,9.9c1.3,2.9,3,5.3,5.2,7
			c2.2,1.8,4.7,3.1,7.4,4c2.7,0.9,5.6,1.4,8.7,1.4c4.1,0,8-1,11.8-2.9v4.1c-3.9,1.6-7.9,2.4-11.8,2.4c-3.6,0-7-0.6-10.2-1.7
			c-3.2-1.1-6.1-2.7-8.6-4.8c-2.5-2.1-4.5-4.8-6-8.2c-1.5-3.4-2.2-7.2-2.2-11.4c0-7.1,2.5-13.2,7.6-18.2c5-5,11.3-7.5,18.7-7.5
			c5.2,0,9.9,1.1,14,3.2c4.1,2.1,7.4,5.2,9.8,9.2C507.5,33.6,508.7,38.3,508.7,43.5z M496.9,43.5c0-4.6-1.4-8.2-4.3-10.7
			c-2.9-2.5-6.6-3.8-11.3-3.8c-4,0-7.4,1.4-10.3,4.1c-2.9,2.7-4.3,6-4.3,9.9c0,2.2,0.3,4.1,0.9,5.8c0.6,1.7,1.4,3.1,2.4,4.3
			c1,1.2,2.2,2.1,3.5,2.8c1.4,0.7,2.8,1.3,4.3,1.6c1.5,0.3,3.1,0.5,4.8,0.5c4.1,0,7.9-1,11.3-3v3.9c-3.5,1.8-7.3,2.8-11.3,2.8
			c-2.6,0-5.1-0.4-7.3-1.1c-2.3-0.7-4.4-1.8-6.3-3.2c-1.9-1.4-3.4-3.4-4.5-5.9c-1.1-2.5-1.7-5.3-1.7-8.5c0-5,1.7-9.2,5.3-12.7
			c3.5-3.5,7.9-5.2,13.2-5.2c5.8,0,10.5,1.6,14.1,4.9c3.6,3.3,5.4,7.8,5.4,13.5V82h-3.9L496.9,43.5L496.9,43.5z"/>
		<path class="st7" d="M537.8,10.6V82h-3.9V3.9h4.7L583.6,82h-4.5L537.8,10.6z M541.7,21.4l3.9,7.2V82h-3.9V21.4z M543.1,3.9h4.6
			L592.9,82h-4.6L543.1,3.9z M549.5,35.4l3.9,7.1V82h-3.9V35.4z M552.3,3.9h4.6L602.1,82h-4.7L552.3,3.9z M561.5,3.9h4.6l41.2,71.3
			V3.9h3.9V82h-4.6L561.5,3.9z M595.5,50.5l-3.9-7.1V3.9h3.9V50.5z M603.3,64l-3.9-6.6V3.9h3.9V64z"/>
		<path class="st7" d="M657.2,37h-6.2c-10.6,0-15.8-3.2-15.8-9.6c0-2.9,1.6-5.3,4.9-7.1c3.3-1.9,8.2-2.8,14.7-2.8
			c4.6,0,8.8,0.5,12.8,1.6c3.9,1.1,7.2,2.6,9.8,4.6l-3.1,2.4c-4.5-3.1-11-4.7-19.5-4.7c-5.4,0-9.4,0.6-11.9,1.7
			c-2.5,1.1-3.8,2.6-3.8,4.3c0,2.1,0.9,3.5,2.7,4.4c1.8,0.9,4.8,1.3,9.3,1.3h6.2c10,0,17.8,2.3,23.3,6.9c5.5,4.6,8.2,10.7,8.2,18.4
			c0,3.5-0.8,6.8-2.3,9.9c-1.6,3.1-3.8,5.8-6.7,8.1c-2.9,2.3-6.6,4.2-11.1,5.5c-4.5,1.4-9.5,2-15.1,2c-7,0-13.5-1.1-19.6-3.2
			s-11.1-5.1-15.2-8.9l3.1-2.3c3.7,3.3,8.3,5.9,13.8,7.7c5.5,1.8,11.5,2.7,17.8,2.7c9.8,0,17.4-2.1,23-6.2c5.6-4.1,8.4-9.3,8.4-15.5
			c0-6.5-2.4-11.7-7.2-15.6C672.8,39,666.1,37,657.2,37z M657.2,52.6h-6.2c-10,0-17.8-2.3-23.3-6.9c-5.5-4.6-8.2-10.7-8.2-18.4
			c0-3.5,0.8-6.8,2.3-9.9c1.6-3.1,3.8-5.8,6.7-8.1c2.9-2.3,6.6-4.2,11.1-5.5c4.5-1.4,9.5-2,15.1-2c7,0,13.5,1.1,19.6,3.2
			s11.1,5.1,15.2,8.9l-3.1,2.3c-3.7-3.3-8.3-5.9-13.8-7.7c-5.5-1.8-11.5-2.7-17.8-2.7c-9.8,0-17.4,2.1-23,6.2
			c-5.6,4.1-8.4,9.3-8.4,15.5c0,6.5,2.4,11.7,7.2,15.6c4.8,3.8,11.6,5.7,20.4,5.7h6c10.7,0,16,3.2,16,9.6c0,2.9-1.6,5.3-4.9,7.1
			c-3.3,1.9-8.2,2.8-14.7,2.8c-4.6,0-8.9-0.5-12.8-1.6c-3.9-1.1-7.2-2.6-9.8-4.6l3.1-2.4c4.5,3.1,11,4.7,19.5,4.7
			c5.4,0,9.4-0.6,11.9-1.7c2.5-1.1,3.8-2.6,3.8-4.3c0-2.1-0.9-3.5-2.7-4.4C664.7,53.1,661.6,52.6,657.2,52.6z M657.2,44.9h-6.2
			c-7.6,0-13.4-1.5-17.5-4.6s-6.1-7.3-6.1-12.8c0-5.1,2.4-9.3,7.2-12.7c4.8-3.4,11.5-5.1,20.2-5.1c5.8,0,11.2,0.8,16.2,2.4
			c5,1.6,9.2,3.8,12.5,6.7l-3,2.4c-3-2.4-6.7-4.3-11.2-5.6c-4.5-1.3-9.3-2-14.5-2c-7.6,0-13.5,1.3-17.5,3.9s-6.1,5.9-6.1,9.9
			c0,4.3,1.7,7.7,5,10c3.3,2.3,8.2,3.5,14.8,3.5h6c7.7,0,13.6,1.5,17.7,4.6c4.1,3.1,6.1,7.3,6.1,12.8c0,5.1-2.4,9.3-7.2,12.7
			c-4.8,3.4-11.5,5.1-20.2,5.1c-5.8,0-11.2-0.8-16.2-2.4s-9.2-3.8-12.5-6.7l3-2.4c3,2.4,6.7,4.3,11.2,5.6c4.5,1.3,9.3,2,14.5,2
			c7.6,0,13.5-1.3,17.5-3.9c4-2.6,6.1-5.9,6.1-9.9c0-4.3-1.7-7.7-5-10C668.7,46,663.8,44.9,657.2,44.9z"/>
		<path class="st7" d="M701.1,10.6V82h-3.9V3.9h4.7L746.9,82h-4.5L701.1,10.6z M705,21.4l3.9,7.2V82H705V21.4z M706.4,3.9h4.6
			L756.1,82h-4.6L706.4,3.9z M712.8,35.4l3.9,7.1V82h-3.9V35.4z M715.6,3.9h4.6L765.3,82h-4.7L715.6,3.9z M724.7,3.9h4.6l41.2,71.3
			V3.9h3.9V82h-4.6L724.7,3.9z M758.8,50.5l-3.9-7.1V3.9h3.9V50.5z M766.6,64l-3.9-6.6V3.9h3.9V64z"/>
		<path class="st7" d="M867.3,43.5V82h-3.9V43.5c0-7.4-1.7-14-5.1-19.7c-3.4-5.8-8.1-10.3-14-13.4c-5.9-3.2-12.5-4.7-19.8-4.7
			c-7,0-13.4,1.7-19.2,5c-5.8,3.4-10.4,7.9-13.7,13.6c-3.3,5.7-5,12-5,18.7c0,4.4,0.7,8.7,2.1,12.7s3.4,7.5,5.9,10.5
			s5.3,5.6,8.6,7.7c3.2,2.2,6.7,3.8,10.5,4.9c3.8,1.1,7.5,1.7,11.4,1.7c4.3,0,8.3-0.8,12.2-2.4v4c-4,1.4-8.1,2.1-12.4,2.1
			c-4.4,0-8.6-0.6-12.8-1.8c-4.1-1.2-8-3-11.5-5.4c-3.5-2.4-6.6-5.2-9.3-8.5c-2.7-3.3-4.8-7.1-6.3-11.5c-1.5-4.4-2.3-9-2.3-13.9
			c0-5.6,1.1-10.9,3.2-16c2.1-5.1,5-9.5,8.7-13.2s8.1-6.7,13.3-8.8c5.2-2.2,10.8-3.3,16.7-3.3c6,0,11.6,1,16.9,3
			c5.3,2,9.8,4.8,13.7,8.4c3.8,3.6,6.9,8,9.1,13.3C866.2,31.6,867.3,37.3,867.3,43.5z M859.5,43.5V82h-3.9V43.5
			c0-6-1.4-11.3-4.1-15.9c-2.7-4.6-6.5-8.1-11.2-10.6c-4.7-2.5-10-3.7-15.9-3.7c-5.6,0-10.7,1.3-15.3,4c-4.6,2.7-8.3,6.2-10.9,10.8
			s-3.9,9.5-3.9,14.8c0,4.6,0.9,8.8,2.5,12.7s4,6.9,6.9,9.4c2.9,2.5,6.1,4.4,9.8,5.7s7.5,2,11.5,2c4.1,0,8.1-0.9,12-2.5v4
			c-4.1,1.6-8.2,2.3-12.2,2.3c-6.2,0-12-1.4-17.2-4.2c-5.3-2.8-9.4-6.8-12.6-12c-3.1-5.2-4.7-11-4.7-17.4c0-4.6,0.9-8.9,2.6-13
			s4.1-7.7,7.1-10.7c3-3,6.6-5.4,10.9-7.2c4.2-1.8,8.7-2.7,13.4-2.7c6.6,0,12.6,1.4,17.9,4.2c5.3,2.8,9.5,6.8,12.6,12
			C858,30.9,859.5,36.8,859.5,43.5z M851.7,43.5V82h-3.9V43.5c0-6.8-2.2-12.3-6.6-16.3c-4.4-4-10-6.1-16.9-6.1
			c-6.4,0-11.7,2.1-15.9,6.3c-4.3,4.2-6.4,9.4-6.4,15.5c0,3.7,0.6,7,1.9,9.9c1.3,2.9,3,5.3,5.2,7c2.2,1.8,4.7,3.1,7.4,4
			c2.7,0.9,5.6,1.4,8.7,1.4c4.1,0,8-1,11.8-2.9v4.1c-3.9,1.6-7.9,2.4-11.8,2.4c-3.6,0-7-0.6-10.2-1.7c-3.2-1.1-6.1-2.7-8.6-4.8
			c-2.5-2.1-4.5-4.8-6-8.2c-1.5-3.4-2.2-7.2-2.2-11.4c0-7.1,2.5-13.2,7.6-18.2c5-5,11.3-7.5,18.7-7.5c5.2,0,9.9,1.1,14,3.2
			c4.1,2.1,7.4,5.2,9.8,9.2C850.5,33.6,851.7,38.3,851.7,43.5z M840,43.5c0-4.6-1.4-8.2-4.3-10.7c-2.9-2.5-6.6-3.8-11.3-3.8
			c-4,0-7.4,1.4-10.3,4.1c-2.9,2.7-4.3,6-4.3,9.9c0,2.2,0.3,4.1,0.9,5.8c0.6,1.7,1.4,3.1,2.4,4.3c1,1.2,2.2,2.1,3.5,2.8
			c1.4,0.7,2.8,1.3,4.3,1.6c1.5,0.3,3.1,0.5,4.8,0.5c4.1,0,7.9-1,11.3-3v3.9c-3.5,1.8-7.3,2.8-11.3,2.8c-2.6,0-5.1-0.4-7.3-1.1
			c-2.3-0.7-4.4-1.8-6.3-3.2c-1.9-1.4-3.4-3.4-4.5-5.9c-1.1-2.5-1.7-5.3-1.7-8.5c0-5,1.7-9.2,5.3-12.7c3.5-3.5,7.9-5.2,13.2-5.2
			c5.8,0,10.5,1.6,14.1,4.9c3.6,3.3,5.4,7.8,5.4,13.5V82H840L840,43.5L840,43.5z"/>
		<path class="st7" d="M875.2,7.8V3.9h58.6v3.9H875.2z M875.2,15.6v-3.9h58.6v3.9H875.2z M875.2,23.4v-3.9h58.6v3.9H875.2z
			 M890.8,25.5h3.9V82h-3.9V25.5z M898.6,25.5h3.9V82h-3.9V25.5z M906.4,25.5h3.9V82h-3.9V25.5z M914.2,25.5h3.9V82h-3.9V25.5z"/>
		<path class="st7" d="M942.3,3.9h3.9V82h-3.9V3.9z M950.1,3.9h3.9V82h-3.9V3.9z M957.9,3.9h3.9V82h-3.9V3.9z M965.8,3.9h3.9V82
			h-3.9V3.9z"/>
		<path class="st7" d="M981.2,59.6c-2.3-5.3-3.4-10.9-3.4-16.7s1.2-11.4,3.4-16.7c2.3-5.3,5.3-9.9,9.2-13.7
			c3.8-3.8,8.4-6.9,13.7-9.2c5.3-2.3,10.9-3.4,16.7-3.4c5.8,0,11.4,1.2,16.7,3.4c5.3,2.3,9.9,5.3,13.7,9.2c3.8,3.8,6.9,8.4,9.2,13.7
			c2.3,5.3,3.4,10.9,3.4,16.7s-1.2,11.4-3.4,16.7c-2.3,5.3-5.3,9.9-9.2,13.7c-3.8,3.8-8.4,6.9-13.7,9.2s-10.9,3.4-16.7,3.4
			c-5.8,0-11.4-1.2-16.7-3.4c-5.3-2.3-9.9-5.3-13.7-9.2C986.5,69.5,983.5,64.9,981.2,59.6z M984.8,27.8c-2.1,4.8-3.1,9.9-3.1,15.2
			s1,10.3,3.1,15.2c2.1,4.8,4.8,9,8.3,12.5c3.5,3.5,7.6,6.3,12.5,8.3c4.8,2.1,9.9,3.1,15.2,3.1c5.3,0,10.3-1,15.2-3.1
			c4.8-2.1,9-4.8,12.5-8.3c3.5-3.5,6.3-7.6,8.3-12.5c2.1-4.8,3.1-9.9,3.1-15.2c0-5.3-1-10.3-3.1-15.2c-2.1-4.8-4.8-9-8.3-12.5
			c-3.5-3.5-7.6-6.3-12.5-8.3c-4.8-2.1-9.9-3.1-15.2-3.1c-5.3,0-10.3,1-15.2,3.1s-9,4.8-12.5,8.3C989.6,18.8,986.8,23,984.8,27.8z
			 M988.4,56.6c-1.9-4.3-2.8-8.9-2.8-13.7s0.9-9.3,2.8-13.7c1.9-4.3,4.3-8.1,7.5-11.2c3.1-3.1,6.9-5.6,11.2-7.5
			c4.3-1.9,8.9-2.8,13.7-2.8c4.8,0,9.3,0.9,13.7,2.8c4.3,1.9,8.1,4.3,11.2,7.5c3.1,3.1,5.6,6.9,7.5,11.2c1.9,4.3,2.8,8.9,2.8,13.7
			s-0.9,9.3-2.8,13.7c-1.9,4.3-4.3,8.1-7.5,11.2c-3.1,3.1-6.9,5.6-11.2,7.5c-4.3,1.9-8.9,2.8-13.7,2.8c-4.8,0-9.3-0.9-13.7-2.8
			c-4.3-1.9-8.1-4.3-11.2-7.5C992.7,64.7,990.3,61,988.4,56.6z M992,30.8c-1.7,3.8-2.5,7.9-2.5,12.1s0.8,8.3,2.5,12.1
			c1.7,3.8,3.9,7.2,6.7,10c2.8,2.8,6.1,5,10,6.7c3.8,1.7,7.9,2.5,12.1,2.5c4.2,0,8.3-0.8,12.1-2.5c3.8-1.7,7.2-3.9,10-6.7
			c2.8-2.8,5-6.1,6.7-10c1.7-3.8,2.5-7.9,2.5-12.1s-0.8-8.3-2.5-12.1c-1.7-3.8-3.9-7.2-6.7-10s-6.1-5-10-6.7
			c-3.8-1.7-7.9-2.5-12.1-2.5c-4.2,0-8.3,0.8-12.1,2.5c-3.9,1.7-7.2,3.9-10,6.7C995.8,23.7,993.6,27,992,30.8z M997.1,56.7
			c-2.4-4.2-3.7-8.8-3.7-13.7c0-5,1.2-9.5,3.7-13.7c2.4-4.2,5.8-7.5,9.9-9.9c4.2-2.4,8.8-3.7,13.7-3.7c5,0,9.5,1.2,13.7,3.7
			c4.2,2.4,7.5,5.8,9.9,9.9c2.4,4.2,3.7,8.8,3.7,13.7c0,5-1.2,9.5-3.7,13.7c-2.4,4.2-5.8,7.5-9.9,9.9c-4.2,2.4-8.8,3.7-13.7,3.7
			c-5,0-9.5-1.2-13.7-3.7C1002.8,64.2,999.5,60.9,997.1,56.7z M1004.2,26.4c-4.6,4.6-6.9,10.1-6.9,16.5s2.3,11.9,6.9,16.5
			c4.6,4.6,10.1,6.9,16.6,6.9c6.5,0,12-2.3,16.6-6.9c4.6-4.6,6.9-10.1,6.9-16.5c0-6.4-2.3-11.9-6.9-16.5c-4.6-4.6-10.1-6.9-16.6-6.9
			C1014.3,19.5,1008.7,21.8,1004.2,26.4z M1006.9,56.7c-3.8-3.8-5.7-8.4-5.7-13.8c0-5.4,1.9-10,5.7-13.8c3.8-3.8,8.4-5.7,13.8-5.7
			c5.4,0,10,1.9,13.8,5.7c3.8,3.8,5.7,8.4,5.7,13.8c0,5.4-1.9,10-5.7,13.8c-3.8,3.8-8.4,5.7-13.8,5.7
			C1015.3,62.5,1010.7,60.6,1006.9,56.7z M1009.7,31.9c-3.1,3.1-4.6,6.7-4.6,11s1.5,8,4.6,11c3.1,3.1,6.7,4.6,11,4.6
			c4.3,0,8-1.5,11-4.6c3.1-3.1,4.6-6.7,4.6-11s-1.5-8-4.6-11c-3.1-3.1-6.7-4.6-11-4.6C1016.4,27.3,1012.8,28.9,1009.7,31.9z"/>
		<path class="st7" d="M1076.3,10.6V82h-3.9V3.9h4.7l45.1,78.1h-4.5L1076.3,10.6z M1080.2,21.4l3.9,7.2V82h-3.9V21.4z M1081.6,3.9
			h4.6l45.2,78.1h-4.6L1081.6,3.9z M1088,35.4l3.9,7.1V82h-3.9V35.4z M1090.8,3.9h4.6l45.2,78.1h-4.7L1090.8,3.9z M1100,3.9h4.6
			l41.2,71.3V3.9h3.9V82h-4.6L1100,3.9z M1134,50.5l-3.9-7.1V3.9h3.9V50.5z M1141.8,64l-3.9-6.6V3.9h3.9V64z"/>
		<path class="st7" d="M1242.5,43.5V82h-3.9V43.5c0-7.4-1.7-14-5.1-19.7c-3.4-5.8-8.1-10.3-14-13.4s-12.5-4.7-19.8-4.7
			c-7,0-13.4,1.7-19.2,5c-5.8,3.4-10.4,7.9-13.7,13.6c-3.3,5.7-5,12-5,18.7c0,4.4,0.7,8.7,2.1,12.7c1.4,4,3.4,7.5,5.9,10.5
			c2.5,3,5.3,5.6,8.6,7.7c3.2,2.2,6.7,3.8,10.5,4.9c3.8,1.1,7.5,1.7,11.4,1.7c4.3,0,8.3-0.8,12.2-2.4v4c-4,1.4-8.1,2.1-12.4,2.1
			c-4.4,0-8.6-0.6-12.8-1.8c-4.1-1.2-8-3-11.5-5.4c-3.5-2.4-6.6-5.2-9.3-8.5c-2.7-3.3-4.8-7.1-6.3-11.5c-1.5-4.4-2.3-9-2.3-13.9
			c0-5.6,1.1-10.9,3.2-16s5-9.5,8.7-13.2s8.1-6.7,13.3-8.8c5.2-2.2,10.8-3.3,16.7-3.3c6,0,11.6,1,16.9,3c5.3,2,9.8,4.8,13.7,8.4
			c3.8,3.6,6.9,8,9.1,13.3C1241.5,31.6,1242.5,37.3,1242.5,43.5z M1234.7,43.5V82h-3.9V43.5c0-6-1.4-11.3-4.1-15.9
			c-2.7-4.6-6.5-8.1-11.2-10.6c-4.7-2.5-10-3.7-15.9-3.7c-5.6,0-10.7,1.3-15.3,4c-4.6,2.7-8.3,6.2-10.9,10.8s-3.9,9.5-3.9,14.8
			c0,4.6,0.9,8.8,2.5,12.7c1.7,3.8,4,6.9,6.9,9.4c2.9,2.5,6.1,4.4,9.8,5.7s7.5,2,11.5,2c4.1,0,8.1-0.9,12-2.5v4
			c-4.1,1.6-8.2,2.3-12.2,2.3c-6.2,0-12-1.4-17.2-4.2c-5.3-2.8-9.4-6.8-12.6-12c-3.1-5.2-4.7-11-4.7-17.4c0-4.6,0.9-8.9,2.6-13
			s4.1-7.7,7.1-10.7c3-3,6.6-5.4,10.9-7.2c4.2-1.8,8.7-2.7,13.4-2.7c6.6,0,12.6,1.4,17.9,4.2c5.3,2.8,9.5,6.8,12.6,12
			C1233.2,30.9,1234.7,36.8,1234.7,43.5z M1226.9,43.5V82h-3.9V43.5c0-6.8-2.2-12.3-6.6-16.3c-4.4-4-10-6.1-16.9-6.1
			c-6.4,0-11.7,2.1-15.9,6.3s-6.4,9.4-6.4,15.5c0,3.7,0.6,7,1.9,9.9c1.3,2.9,3,5.3,5.2,7c2.2,1.8,4.7,3.1,7.4,4
			c2.7,0.9,5.6,1.4,8.7,1.4c4.1,0,8-1,11.8-2.9v4.1c-3.9,1.6-7.9,2.4-11.8,2.4c-3.6,0-7-0.6-10.2-1.7c-3.2-1.1-6.1-2.7-8.6-4.8
			c-2.5-2.1-4.5-4.8-6-8.2c-1.5-3.4-2.2-7.2-2.2-11.4c0-7.1,2.5-13.2,7.6-18.2c5-5,11.3-7.5,18.7-7.5c5.2,0,9.9,1.1,14,3.2
			c4.1,2.1,7.4,5.2,9.8,9.2C1225.7,33.6,1226.9,38.3,1226.9,43.5z M1215.2,43.5c0-4.6-1.4-8.2-4.3-10.7c-2.9-2.5-6.6-3.8-11.3-3.8
			c-4,0-7.4,1.4-10.3,4.1c-2.9,2.7-4.3,6-4.3,9.9c0,2.2,0.3,4.1,0.9,5.8c0.6,1.7,1.4,3.1,2.4,4.3c1,1.2,2.2,2.1,3.5,2.8
			c1.4,0.7,2.8,1.3,4.3,1.6c1.5,0.3,3.1,0.5,4.8,0.5c4.1,0,7.9-1,11.3-3v3.9c-3.5,1.8-7.3,2.8-11.3,2.8c-2.6,0-5.1-0.4-7.3-1.1
			c-2.3-0.7-4.4-1.8-6.3-3.2c-1.9-1.4-3.4-3.4-4.5-5.9c-1.1-2.5-1.7-5.3-1.7-8.5c0-5,1.7-9.2,5.3-12.7c3.5-3.5,7.9-5.2,13.2-5.2
			c5.8,0,10.5,1.6,14.1,4.9c3.6,3.3,5.4,7.8,5.4,13.5V82h-3.9L1215.2,43.5L1215.2,43.5z"/>
		<path class="st7" d="M1252.2,3.9h3.9V82h-3.9V3.9z M1260,3.9h3.9V82h-3.9V3.9z M1267.8,3.9h3.9V82h-3.9V3.9z M1275.6,3.9h3.9v58.6
			h28.8v3.9h-28.8v3.9h28.8v3.9h-28.8v3.9h28.8V82h-32.7L1275.6,3.9L1275.6,3.9z"/>
	</g>
	<g>
		<path class="st7" d="M770.7,184c-1.7-4-2.6-8.3-2.6-12.7c0-4.4,0.9-8.7,2.6-12.7c1.7-4,4-7.5,7-10.4c2.9-2.9,6.4-5.3,10.4-7
			c4-1.7,8.3-2.6,12.7-2.6c4.4,0,8.7,0.9,12.7,2.6c4,1.7,7.5,4,10.4,7c2.9,2.9,5.3,6.4,7,10.4c1.7,4,2.6,8.3,2.6,12.7
			c0,4.4-0.9,8.7-2.6,12.7c-1.7,4-4,7.5-7,10.4c-2.9,2.9-6.4,5.3-10.4,7c-4,1.7-8.3,2.6-12.7,2.6c-4.4,0-8.7-0.9-12.7-2.6
			c-4-1.7-7.5-4-10.4-7C774.8,191.5,772.4,188,770.7,184z M773.4,159.8c-1.6,3.7-2.4,7.5-2.4,11.5s0.8,7.9,2.4,11.5s3.7,6.8,6.3,9.5
			c2.7,2.7,5.8,4.8,9.5,6.3s7.5,2.4,11.5,2.4s7.9-0.8,11.5-2.4c3.7-1.6,6.8-3.7,9.5-6.3c2.7-2.7,4.8-5.8,6.3-9.5
			c1.6-3.7,2.4-7.5,2.4-11.5s-0.8-7.9-2.4-11.5c-1.6-3.7-3.7-6.8-6.3-9.5c-2.7-2.7-5.8-4.8-9.5-6.3c-3.7-1.6-7.5-2.4-11.5-2.4
			s-7.9,0.8-11.5,2.4c-3.7,1.6-6.8,3.7-9.5,6.3C777.1,152.9,775,156.1,773.4,159.8z M776.2,181.7c-1.4-3.3-2.1-6.8-2.1-10.4
			c0-3.6,0.7-7.1,2.1-10.4c1.4-3.3,3.3-6.1,5.7-8.5c2.4-2.4,5.2-4.3,8.5-5.7c3.3-1.4,6.8-2.1,10.4-2.1c3.6,0,7.1,0.7,10.4,2.1
			c3.3,1.4,6.1,3.3,8.5,5.7c2.4,2.4,4.3,5.2,5.7,8.5c1.4,3.3,2.1,6.8,2.1,10.4c0,3.6-0.7,7.1-2.1,10.4c-1.4,3.3-3.3,6.1-5.7,8.5
			c-2.4,2.4-5.2,4.3-8.5,5.7c-3.3,1.4-6.8,2.1-10.4,2.1c-3.6,0-7.1-0.7-10.4-2.1c-3.3-1.4-6.1-3.3-8.5-5.7
			C779.5,187.8,777.6,185,776.2,181.7z M778.9,162.1c-1.3,2.9-1.9,6-1.9,9.2c0,3.2,0.6,6.3,1.9,9.2c1.3,2.9,2.9,5.5,5.1,7.6
			c2.1,2.1,4.7,3.8,7.6,5.1c2.9,1.3,6,1.9,9.2,1.9s6.3-0.6,9.2-1.9c2.9-1.3,5.5-2.9,7.6-5.1c2.1-2.1,3.8-4.7,5.1-7.6
			c1.3-2.9,1.9-6,1.9-9.2c0-3.2-0.6-6.3-1.9-9.2c-1.3-2.9-2.9-5.5-5.1-7.6c-2.1-2.1-4.7-3.8-7.6-5.1c-2.9-1.3-6-1.9-9.2-1.9
			s-6.3,0.6-9.2,1.9c-2.9,1.3-5.5,2.9-7.6,5.1C781.9,156.6,780.2,159.1,778.9,162.1z M782.8,181.7c-1.9-3.2-2.8-6.7-2.8-10.4
			c0-3.8,0.9-7.2,2.8-10.4c1.9-3.2,4.4-5.7,7.6-7.6c3.2-1.9,6.7-2.8,10.4-2.8c3.8,0,7.2,0.9,10.4,2.8c3.2,1.9,5.7,4.4,7.6,7.6
			c1.9,3.2,2.8,6.7,2.8,10.4c0,3.8-0.9,7.2-2.8,10.4c-1.9,3.2-4.4,5.7-7.6,7.6c-3.2,1.9-6.7,2.8-10.4,2.8s-7.2-0.9-10.4-2.8
			C787.2,187.5,784.7,184.9,782.8,181.7z M788.2,158.7c-3.5,3.5-5.2,7.7-5.2,12.6c0,4.9,1.7,9.1,5.2,12.6c3.5,3.5,7.7,5.3,12.6,5.3
			s9.1-1.7,12.6-5.3s5.2-7.7,5.2-12.6c0-4.9-1.7-9.1-5.2-12.6s-7.7-5.3-12.6-5.3C795.9,153.5,791.7,155.2,788.2,158.7z M790.3,181.8
			c-2.9-2.9-4.3-6.4-4.3-10.5s1.4-7.6,4.3-10.5s6.4-4.3,10.5-4.3c4.1,0,7.6,1.4,10.5,4.3c2.9,2.9,4.3,6.4,4.3,10.5
			s-1.4,7.6-4.3,10.5c-2.9,2.9-6.4,4.3-10.5,4.3C796.7,186.2,793.2,184.7,790.3,181.8z M792.4,162.9c-2.3,2.3-3.5,5.1-3.5,8.4
			c0,3.3,1.2,6.1,3.5,8.4c2.3,2.3,5.1,3.5,8.4,3.5c3.3,0,6.1-1.2,8.4-3.5c2.3-2.3,3.5-5.1,3.5-8.4c0-3.3-1.2-6.1-3.5-8.4
			c-2.3-2.3-5.1-3.5-8.4-3.5C797.5,159.4,794.7,160.6,792.4,162.9z"/>
		<path class="st7" d="M896,201h-3v-37.2c0-3-0.7-5.9-2-8.6c-1.3-2.7-3.1-5.1-5.4-7.1c-2.3-2-4.9-3.6-8-4.8
			c-3.1-1.2-6.4-1.8-9.8-1.8c-4.6,0-8.9,0.9-12.7,2.6c-3.8,1.7-6.8,4.3-9.1,7.8c-2.3,3.4-3.4,7.4-3.4,11.9V201h-3v-37.2
			c0-3.8,0.7-7.3,2.2-10.5c1.5-3.2,3.5-5.9,6.1-8c2.5-2.1,5.5-3.8,9-5c3.4-1.2,7.1-1.8,10.9-1.8c6.8,0,12.7,1.7,17.7,5.2
			c5-3.4,10.9-5.2,17.7-5.2c3.9,0,7.5,0.6,10.9,1.8c3.4,1.2,6.4,2.8,9,5c2.5,2.1,4.6,4.8,6.1,8c1.5,3.2,2.2,6.7,2.2,10.5V201h-3
			v-37.2c0-4.5-1.2-8.4-3.4-11.9c-2.3-3.4-5.3-6-9.1-7.8c-3.8-1.8-8-2.7-12.7-2.7c-5.8,0-10.9,1.4-15.3,4.1c0.6,0.6,1.3,1.3,2.1,2.1
			c3.8-2.2,8.2-3.3,13.2-3.3c3.1,0,5.9,0.4,8.6,1.3c2.7,0.9,5.1,2.1,7.1,3.7c2,1.6,3.6,3.6,4.8,6.1c1.2,2.5,1.7,5.2,1.7,8.2V201h-3
			v-37.2c0-2.6-0.5-4.9-1.5-7c-1-2.1-2.4-3.8-4.2-5.2c-1.8-1.3-3.8-2.4-6.1-3.1c-2.3-0.7-4.8-1.1-7.5-1.1c-4.4,0-8.2,0.9-11.4,2.7
			c0.5,0.8,1,1.6,1.5,2.6c2.7-1.5,6-2.3,9.9-2.3c3.1,0,5.8,0.5,8.2,1.4c2.4,0.9,4.3,2.5,5.8,4.5c1.5,2.1,2.2,4.6,2.2,7.4V201h-3
			v-37.2c0-3.5-1.2-6.1-3.7-7.8s-5.7-2.6-9.6-2.6c-3.6,0-6.5,0.6-8.7,2c0.4,1,0.6,2,0.8,3c1.7-1.3,4.4-2,7.9-2
			c6.9,0,10.3,2.5,10.3,7.4V201h-3v-37.2c0-0.8-0.1-1.5-0.4-2c-0.3-0.6-0.6-1-1-1.3c-0.4-0.3-1-0.5-1.6-0.7s-1.3-0.3-2-0.3
			s-1.4-0.1-2.4-0.1s-1.7,0-2.4,0.1s-1.3,0.1-2,0.3c-0.7,0.2-1.2,0.4-1.6,0.7c-0.4,0.3-0.8,0.7-1,1.3c-0.3,0.6-0.4,1.2-0.4,2v37.2
			L896,201L896,201z M890,163.9V201h-3v-37.2c0-2.6-0.5-4.9-1.5-7c-1-2.1-2.4-3.8-4.2-5.2c-1.8-1.3-3.8-2.4-6.1-3.1
			c-2.3-0.7-4.8-1.1-7.5-1.1s-5.2,0.4-7.5,1.1c-2.3,0.7-4.3,1.7-6.1,3.1c-1.8,1.3-3.1,3.1-4.2,5.2c-1,2.1-1.5,4.4-1.5,7V201h-3
			v-37.2c0-3,0.6-5.7,1.7-8.2c1.2-2.5,2.8-4.5,4.8-6.1c2-1.6,4.4-2.9,7.1-3.7c2.7-0.9,5.6-1.3,8.6-1.3c3.1,0,5.9,0.4,8.6,1.3
			c2.7,0.9,5.1,2.1,7.1,3.7c2,1.6,3.6,3.6,4.8,6.1C889.4,158.1,890,160.9,890,163.9z M884.1,163.9V201h-3v-37.2
			c0-3.5-1.2-6.1-3.7-7.8s-5.7-2.6-9.6-2.6s-7.1,0.9-9.6,2.6c-2.5,1.7-3.7,4.3-3.7,7.8V201h-3v-37.2c0-2.9,0.7-5.4,2.2-7.4
			c1.5-2.1,3.4-3.6,5.8-4.5c2.4-0.9,5.1-1.4,8.2-1.4s5.8,0.5,8.2,1.4c2.4,0.9,4.3,2.5,5.8,4.5C883.3,158.5,884.1,161,884.1,163.9z
			 M878.1,163.9V201h-3v-37.2c0-0.8-0.1-1.5-0.4-2c-0.3-0.6-0.6-1-1-1.3c-0.4-0.3-1-0.5-1.6-0.7c-0.7-0.2-1.3-0.3-2-0.3
			s-1.4-0.1-2.4-0.1s-1.7,0-2.4,0.1s-1.3,0.1-2,0.3c-0.7,0.2-1.2,0.4-1.6,0.7c-0.4,0.3-0.8,0.7-1,1.3c-0.3,0.6-0.4,1.2-0.4,2V201h-3
			v-37.2c0-5,3.4-7.4,10.3-7.4C874.7,156.4,878.1,158.9,878.1,163.9z"/>
		<path class="st7" d="M994.7,201h-3v-37.2c0-3-0.7-5.9-2-8.6c-1.3-2.7-3.1-5.1-5.4-7.1c-2.3-2-4.9-3.6-8-4.8
			c-3.1-1.2-6.4-1.8-9.8-1.8c-4.6,0-8.9,0.9-12.7,2.6c-3.8,1.7-6.8,4.3-9.1,7.8c-2.3,3.4-3.4,7.4-3.4,11.9V201h-3v-37.2
			c0-3.8,0.7-7.3,2.2-10.5c1.5-3.2,3.5-5.9,6.1-8c2.5-2.1,5.5-3.8,9-5c3.4-1.2,7.1-1.8,10.9-1.8c6.8,0,12.7,1.7,17.7,5.2
			c5-3.4,10.9-5.2,17.7-5.2c3.9,0,7.5,0.6,10.9,1.8c3.4,1.2,6.4,2.8,9,5c2.5,2.1,4.6,4.8,6.1,8c1.5,3.2,2.2,6.7,2.2,10.5V201h-3
			v-37.2c0-4.5-1.2-8.4-3.4-11.9s-5.3-6-9.1-7.8c-3.8-1.8-8-2.7-12.7-2.7c-5.8,0-10.9,1.4-15.3,4.1c0.6,0.6,1.3,1.3,2.1,2.1
			c3.8-2.2,8.2-3.3,13.2-3.3c3.1,0,5.9,0.4,8.6,1.3c2.7,0.9,5.1,2.1,7.1,3.7c2,1.6,3.6,3.6,4.8,6.1c1.2,2.5,1.7,5.2,1.7,8.2V201h-3
			v-37.2c0-2.6-0.5-4.9-1.5-7c-1-2.1-2.4-3.8-4.2-5.2c-1.8-1.3-3.8-2.4-6.1-3.1c-2.3-0.7-4.8-1.1-7.5-1.1c-4.4,0-8.2,0.9-11.4,2.7
			c0.5,0.8,1,1.6,1.5,2.6c2.7-1.5,6-2.3,9.9-2.3c3.1,0,5.8,0.5,8.2,1.4c2.4,0.9,4.3,2.5,5.8,4.5c1.5,2.1,2.2,4.6,2.2,7.4V201h-3
			v-37.2c0-3.5-1.2-6.1-3.7-7.8s-5.7-2.6-9.6-2.6c-3.6,0-6.5,0.6-8.7,2c0.4,1,0.6,2,0.8,3c1.7-1.3,4.4-2,7.9-2
			c6.9,0,10.3,2.5,10.3,7.4V201h-3v-37.2c0-0.8-0.1-1.5-0.4-2c-0.3-0.6-0.6-1-1-1.3c-0.4-0.3-1-0.5-1.6-0.7s-1.3-0.3-2-0.3
			s-1.4-0.1-2.4-0.1s-1.7,0-2.4,0.1s-1.3,0.1-2,0.3c-0.7,0.2-1.2,0.4-1.6,0.7c-0.4,0.3-0.8,0.7-1,1.3c-0.3,0.6-0.4,1.2-0.4,2v37.2
			L994.7,201L994.7,201z M988.8,163.9V201h-3v-37.2c0-2.6-0.5-4.9-1.5-7c-1-2.1-2.4-3.8-4.2-5.2c-1.8-1.3-3.8-2.4-6.1-3.1
			c-2.3-0.7-4.8-1.1-7.5-1.1c-2.7,0-5.2,0.4-7.5,1.1c-2.3,0.7-4.3,1.7-6.1,3.1c-1.8,1.3-3.1,3.1-4.2,5.2c-1,2.1-1.5,4.4-1.5,7V201
			h-3v-37.2c0-3,0.6-5.7,1.7-8.2c1.2-2.5,2.8-4.5,4.8-6.1c2-1.6,4.4-2.9,7.1-3.7c2.7-0.9,5.6-1.3,8.6-1.3s5.9,0.4,8.6,1.3
			c2.7,0.9,5.1,2.1,7.1,3.7c2,1.6,3.6,3.6,4.8,6.1C988.2,158.1,988.8,160.9,988.8,163.9z M982.8,163.9V201h-3v-37.2
			c0-3.5-1.2-6.1-3.7-7.8s-5.7-2.6-9.6-2.6s-7.1,0.9-9.6,2.6c-2.5,1.7-3.7,4.3-3.7,7.8V201h-3v-37.2c0-2.9,0.7-5.4,2.2-7.4
			c1.5-2.1,3.4-3.6,5.8-4.5c2.4-0.9,5.1-1.4,8.2-1.4c3.1,0,5.8,0.5,8.2,1.4c2.4,0.9,4.3,2.5,5.8,4.5
			C982.1,158.5,982.8,161,982.8,163.9z M976.9,163.9V201h-3v-37.2c0-0.8-0.1-1.5-0.4-2c-0.3-0.6-0.6-1-1-1.3c-0.4-0.3-1-0.5-1.6-0.7
			c-0.7-0.2-1.3-0.3-2-0.3s-1.4-0.1-2.4-0.1c-0.9,0-1.7,0-2.4,0.1c-0.6,0.1-1.3,0.1-2,0.3c-0.7,0.2-1.2,0.4-1.6,0.7
			c-0.4,0.3-0.8,0.7-1,1.3c-0.3,0.6-0.4,1.2-0.4,2V201h-3v-37.2c0-5,3.4-7.4,10.3-7.4C973.4,156.4,976.9,158.9,976.9,163.9z"/>
		<path class="st7" d="M1094.5,174.7v-33.1h3v33.1c0,4-0.8,7.7-2.4,11.4c-1.6,3.6-3.8,6.7-6.4,9.4c-2.7,2.6-5.9,4.7-9.6,6.2
			c-3.7,1.6-7.6,2.3-11.7,2.3c-4.1,0-8-0.8-11.7-2.3c-3.7-1.6-6.9-3.6-9.6-6.2c-2.7-2.6-4.8-5.7-6.4-9.4c-1.6-3.6-2.4-7.4-2.4-11.4
			v-33.1h3v33.1c0,4.7,1.2,9.1,3.6,13.2c2.4,4,5.7,7.2,9.9,9.6c4.2,2.4,8.7,3.5,13.6,3.5c4.9,0,9.4-1.2,13.6-3.5
			c4.2-2.4,7.5-5.6,9.9-9.6C1093.3,183.8,1094.5,179.4,1094.5,174.7z M1088.6,174.7v-33.1h3v33.1c0,4.2-1.1,8.1-3.3,11.7
			c-2.2,3.6-5.1,6.4-8.8,8.5c-3.7,2.1-7.7,3.1-12.1,3.1c-4.3,0-8.4-1-12.1-3.1c-3.7-2.1-6.7-4.9-8.8-8.5c-2.2-3.6-3.3-7.5-3.3-11.7
			v-33.1h3v33.1c0,3.7,0.9,7.1,2.8,10.2c1.9,3.1,4.5,5.6,7.7,7.4c3.3,1.8,6.8,2.7,10.6,2.7s7.4-0.9,10.6-2.7
			c3.3-1.8,5.8-4.3,7.7-7.4C1087.6,181.7,1088.6,178.3,1088.6,174.7z M1082.6,174.7v-33.1h3v33.1c0,4.8-1.8,8.9-5.4,12.3
			c-3.6,3.4-7.9,5.1-12.9,5.1c-5,0-9.3-1.7-12.9-5.1s-5.4-7.5-5.4-12.3v-33.1h3v33.1c0,4,1.5,7.4,4.5,10.2s6.6,4.2,10.8,4.2
			c4.2,0,7.8-1.4,10.8-4.2C1081.1,182.1,1082.6,178.7,1082.6,174.7z M1076.7,174.7v-33.1h3v33.1c0,3.1-1.2,5.8-3.6,8.1
			s-5.3,3.4-8.7,3.4s-6.3-1.1-8.7-3.4c-2.4-2.3-3.6-5-3.6-8.1v-33.1h3v33.1c0,2.3,0.9,4.3,2.7,6c1.8,1.7,4,2.5,6.6,2.5
			s4.8-0.8,6.6-2.5C1075.8,179,1076.7,177,1076.7,174.7z"/>
		<path class="st7" d="M1107.9,146.7V201h-3v-59.5h3.5l34.3,59.5h-3.4L1107.9,146.7z M1110.9,154.9l3,5.4V201h-3V154.9z
			 M1111.9,141.6h3.5l34.4,59.5h-3.5L1111.9,141.6z M1116.8,165.6l3,5.4V201h-3V165.6z M1119,141.6h3.5l34.4,59.5h-3.5L1119,141.6z
			 M1125.9,141.6h3.5l31.4,54.3v-54.3h3V201h-3.5L1125.9,141.6z M1151.8,177l-3-5.4v-30.1h3V177z M1157.8,187.3l-3-5v-40.7h3V187.3z
			"/>
		<path class="st7" d="M1171.5,141.6h3V201h-3V141.6z M1177.4,141.6h3V201h-3V141.6z M1183.4,141.6h3V201h-3V141.6z M1189.3,141.6h3
			V201h-3V141.6z"/>
		<path class="st7" d="M1198.7,144.5v-3h44.6v3H1198.7z M1198.7,150.5v-3h44.6v3H1198.7z M1198.7,156.4v-3h44.6v3H1198.7z
			 M1210.6,158h3v43h-3V158z M1216.5,158h3v43h-3V158z M1222.5,158h3v43h-3V158z M1228.4,158h3v43h-3V158z"/>
		<path class="st7" d="M1285.9,141.6h3l-18.7,39.4V201h-3V181l-19.9-39.4h3l18.4,36.4L1285.9,141.6z M1253.3,141.6h3l14.7,28
			l-1.5,3.3L1253.3,141.6z M1259.2,141.6h3l11.7,21.5l-1.5,3.3L1259.2,141.6z M1265.3,141.6h3l8.7,15l-1.5,3.3L1265.3,141.6z
			 M1291.9,141.6h3l-18.7,39.4V201h-3V181L1291.9,141.6z M1297.8,141.6h3l-18.7,39.4V201h-3V181L1297.8,141.6z M1303.8,141.6h3
			L1288,181V201h-3V181L1303.8,141.6z"/>
	</g>
	<g>
		<path class="st7" d="M1242.2,259.7v-2.8h56.8v2.8H1242.2z M1242.2,265.4v-2.8h56.8v2.8H1242.2z M1242.2,271.1v-2.8h56.8v2.8
			H1242.2z M1256.4,276.7v27.2h-2.8v-27.2h-2.8v27.2h-2.8v-27.2h-2.8v27.2h-2.8v-30h56.8v30h-2.8v-27.2h-2.8v27.2h-2.8v-27.2h-2.8
			v27.2h-2.8v-27.2h-7.1v25.6h-2.8v-25.6h-2.8v25.6h-2.8v-25.6h-2.8v25.6h-2.8v-25.6H1256.4z"/>
		<path class="st7" d="M1242.2,343.5v-32.8h56.8v32.8c0,5-1.3,9.6-3.8,14c-2.5,4.3-6,7.8-10.3,10.3c-4.3,2.6-9.1,3.8-14.2,3.8
			c-3.9,0-7.6-0.8-11.1-2.3c-3.5-1.5-6.6-3.5-9.1-6.1c-2.5-2.5-4.6-5.5-6.1-9C1242.9,350.8,1242.2,347.2,1242.2,343.5z M1245,313.6
			v29.9c0,4.5,1.2,8.7,3.4,12.5c2.3,3.9,5.4,6.9,9.3,9.2c3.9,2.3,8.2,3.5,12.9,3.5c4.6,0,8.8-1.2,12.8-3.5s7-5.4,9.3-9.3
			c2.3-3.9,3.4-8,3.4-12.5v-29.9L1245,313.6L1245,313.6z M1247.9,316.4h45.4v27.1c0,4-1,7.7-3,11.1c-2,3.4-4.8,6.2-8.3,8.2
			c-3.5,2-7.3,3-11.3,3c-4.1,0-8-1-11.4-3c-3.5-2-6.3-4.8-8.3-8.2c-2-3.4-3-7.1-3-11.1L1247.9,316.4L1247.9,316.4z M1250.7,319.3
			v24.2c0,3.5,0.9,6.7,2.7,9.7c1.8,3,4.2,5.3,7.3,7.1c3.1,1.8,6.4,2.7,10.1,2.7c3.5,0,6.9-0.9,9.9-2.7s5.5-4.1,7.2-7.1
			c1.8-3,2.7-6.2,2.7-9.6v-24.2L1250.7,319.3L1250.7,319.3z M1253.6,322.1h34.1v21.4c0,4.5-1.7,8.4-5,11.6c-3.3,3.3-7.3,4.9-12,4.9
			c-4.8,0-8.8-1.6-12.1-4.8c-3.3-3.2-5-7.1-5-11.6L1253.6,322.1L1253.6,322.1z M1256.4,324.9v18.6c0,3.7,1.4,6.9,4.2,9.6
			c2.8,2.7,6.1,4,10.1,4c3.9,0,7.2-1.3,10-4c2.8-2.7,4.1-5.9,4.1-9.6v-18.6H1256.4L1256.4,324.9z M1259.2,327.8h22.7v15.7
			c0,2.9-1.1,5.4-3.3,7.5c-2.2,2.1-4.8,3.1-8,3.1c-3.2,0-5.9-1-8.1-3.1c-2.2-2.1-3.3-4.6-3.3-7.5L1259.2,327.8L1259.2,327.8z
			 M1262.1,330.6v12.9c0,2.1,0.8,3.9,2.5,5.5c1.7,1.5,3.7,2.3,6.1,2.3c2.3,0,4.3-0.8,5.9-2.3c1.7-1.5,2.5-3.3,2.5-5.5v-12.9H1262.1z
			"/>
		<path class="st7" d="M1242.2,380.9V378h56.8v2.8H1242.2z M1242.2,386.5v-2.8h56.8v2.8H1242.2z M1242.2,392.2v-2.8h56.8v2.8H1242.2
			z M1256.4,397.9v27.2h-2.8v-27.2h-2.8v27.2h-2.8v-27.2h-2.8v27.2h-2.8v-30h56.8v30h-2.8v-27.2h-2.8v27.2h-2.8v-27.2h-2.8v27.2
			h-2.8v-27.2h-7.1v25.6h-2.8v-25.6h-2.8v25.6h-2.8v-25.6h-2.8v25.6h-2.8v-25.6H1256.4z"/>
		<path class="st7" d="M1258,453.3v17.1c0,3.5,0.8,6.7,2.5,9.7c1.7,3,4,5.4,7,7.1c3,1.8,6.3,2.7,9.9,2.7c3.3,0,6.4-0.9,9.2-2.7
			c2.9-1.8,5.2-4.2,6.9-7.2c1.7-3,2.6-6.2,2.6-9.7v-35.7h-54v-2.8h56.8v38.6c0,3-0.6,5.8-1.7,8.6c-1.2,2.7-2.7,5.1-4.7,7.1
			c-2,2-4.2,3.6-6.9,4.8c-2.7,1.2-5.4,1.8-8.2,1.8c-4.6,0-8.6-1-12.1-3.2s-6-4.9-7.8-8.5l-15.4,5.9v-3l14.2-5.6
			c-0.2-0.7-0.5-1.5-0.7-2.5l-13.5,5.3v-3l13-5.2c-0.1-0.8-0.1-1.7-0.1-2.6l-12.9,5v-3l12.9-5v-2.6l-12.9,4.8v-3l12.9-4.8v-8.5
			L1258,453.3L1258,453.3z M1263.7,453.3v17.1c0,3.8,1.3,7,3.9,9.8c2.6,2.7,5.9,4,9.9,4c3.5,0,6.5-1.4,9.1-4.1s3.9-6,3.9-9.7v-30
			h-48.3v-2.8h51.1v32.9c0,4.5-1.6,8.4-4.8,11.7c-3.2,3.3-6.9,5-11.1,5c-4.7,0-8.7-1.6-11.9-4.9c-3.2-3.3-4.8-7.2-4.8-11.7v-17.1
			L1263.7,453.3L1263.7,453.3z M1269.3,453.3v17.1c0,2.3,0.7,4.2,2.1,5.8c1.4,1.6,3.4,2.4,6,2.4c1.9,0,3.6-0.8,5.1-2.5
			c1.5-1.6,2.2-3.5,2.2-5.7v-24.4h-42.6v-2.8h45.4v27.2c0,2.9-1,5.5-3.1,7.7c-2,2.2-4.4,3.3-7.1,3.3c-3.3,0-6-1.1-8-3.2
			c-2-2.1-3-4.7-3-7.8v-17.1L1269.3,453.3L1269.3,453.3z M1242.2,451.7v-2.8h39.8v21.5c0,1.5-0.4,2.7-1.3,3.8c-0.9,1-2,1.5-3.2,1.5
			c-3.5,0-5.3-1.8-5.3-5.3v-17.1h2.8v17.1c0,1.6,0.8,2.4,2.4,2.4c0.4,0,0.8-0.2,1.2-0.7c0.3-0.5,0.5-1.1,0.5-1.7v-18.7L1242.2,451.7
			L1242.2,451.7z"/>
		<path class="st7" d="M1270.2,559.2h-28v-2.8h28c5.4,0,10.2-1.2,14.4-3.8c4.2-2.5,7.5-5.9,9.8-10.2s3.5-9.1,3.5-14.4
			c0-5.1-1.2-9.8-3.7-14c-2.4-4.2-5.8-7.6-9.9-10c-4.2-2.4-8.7-3.6-13.6-3.6c-3.2,0-6.3,0.5-9.2,1.6c-2.9,1-5.4,2.5-7.6,4.3
			c-2.2,1.8-4,3.9-5.6,6.2c-1.6,2.4-2.8,4.9-3.6,7.6c-0.8,2.7-1.2,5.5-1.2,8.3c0,3.1,0.6,6.1,1.8,8.8h-2.9c-1-2.9-1.5-5.9-1.5-9
			c0-3.2,0.4-6.3,1.3-9.3c0.9-3,2.2-5.8,4-8.4c1.7-2.6,3.8-4.8,6.2-6.8c2.4-2,5.1-3.5,8.3-4.6c3.2-1.1,6.5-1.7,10.1-1.7
			c4.1,0,8,0.8,11.7,2.3c3.7,1.5,6.9,3.6,9.6,6.3c2.7,2.7,4.8,5.9,6.4,9.7c1.6,3.8,2.4,7.8,2.4,12.1c0,4.4-0.7,8.5-2.2,12.3
			c-1.5,3.8-3.5,7.2-6.1,9.9c-2.6,2.8-5.8,5-9.6,6.6C1278.9,558.4,1274.7,559.2,1270.2,559.2z M1270.2,553.5h-28v-2.8h28
			c4.3,0,8.2-1,11.5-3c3.3-2,5.9-4.7,7.7-8.1c1.8-3.5,2.7-7.3,2.7-11.6c0-4.1-1-7.8-2.9-11.1c-1.9-3.4-4.6-6-7.8-7.9
			c-3.3-1.9-6.9-2.9-10.8-2.9c-3.4,0-6.4,0.6-9.2,1.8c-2.8,1.2-5.1,2.9-6.8,5c-1.8,2.1-3.2,4.5-4.2,7.1c-1,2.7-1.5,5.5-1.5,8.4
			c0,3,0.6,5.9,1.8,8.8h-2.9c-1.1-3-1.7-5.9-1.7-8.8c0-4.6,1-8.7,3.1-12.5c2-3.8,5-6.9,8.7-9.1c3.8-2.3,8-3.4,12.6-3.4
			c3.3,0,6.5,0.6,9.5,1.9c3,1.3,5.6,3,7.8,5.2c2.2,2.2,3.9,4.8,5.2,7.9c1.3,3.1,1.9,6.3,1.9,9.8c0,4.8-1,9.2-3.1,13
			c-2,3.9-5,6.9-8.8,9.2C1279.4,552.4,1275,553.5,1270.2,553.5z M1270.2,547.9h-28V545h28c5,0,8.9-1.6,11.9-4.8
			c2.9-3.2,4.4-7.3,4.4-12.3c0-4.6-1.5-8.5-4.6-11.6c-3.1-3.1-6.8-4.7-11.2-4.7c-2.7,0-5.1,0.5-7.2,1.4c-2.1,0.9-3.8,2.2-5.1,3.8
			c-1.3,1.6-2.3,3.4-2.9,5.4c-0.7,2-1,4.1-1,6.3c0,3,0.7,5.9,2.1,8.5h-3c-1.2-2.8-1.8-5.7-1.8-8.6c0-2.6,0.4-5.1,1.2-7.4
			s2-4.4,3.5-6.3c1.5-1.8,3.5-3.3,6-4.4c2.5-1.1,5.2-1.6,8.3-1.6c5.2,0,9.6,1.8,13.2,5.5c3.6,3.7,5.5,8.2,5.5,13.6
			c0,3.8-0.8,7.2-2.3,10.2c-1.5,3-3.8,5.4-6.7,7.1C1277.4,547,1274,547.9,1270.2,547.9z M1270.2,539.3c3.4,0,6-1,7.8-3.1
			c1.8-2.1,2.8-4.8,2.8-8.2c0-2.9-1-5.4-3-7.4c-2-2.1-4.4-3.1-7.2-3.1c-1.6,0-3,0.2-4.2,0.6c-1.2,0.4-2.3,1-3.1,1.7
			c-0.8,0.7-1.5,1.6-2,2.6c-0.5,1-0.9,2-1.2,3.1c-0.2,1.1-0.4,2.3-0.4,3.5c0,3,0.7,5.7,2.2,8.2h-2.8c-1.3-2.5-2-5.3-2-8.2
			c0-1.9,0.3-3.7,0.8-5.4s1.3-3.2,2.3-4.6c1-1.4,2.5-2.5,4.3-3.3s3.9-1.2,6.2-1.2c3.6,0,6.7,1.3,9.2,3.8c2.5,2.5,3.8,5.7,3.8,9.6
			c0,4.2-1.2,7.7-3.6,10.3s-5.7,3.9-9.8,3.9h-28v-2.8L1270.2,539.3L1270.2,539.3z"/>
		<path class="st7" d="M1283.3,576.3v2.8h-41v-2.8H1283.3z M1283.3,582v2.8h-41V582H1283.3z M1283.3,587.7v2.8h-41v-2.8H1283.3z
			 M1283.3,593.3v2.8h-41v-2.8H1283.3z M1284.8,564.9h2.8v42.6h-2.8V564.9z M1290.5,564.9h2.8v42.6h-2.8V564.9z M1296.2,564.9h2.8
			v42.6h-2.8V564.9z"/>
		<path class="st7" d="M1299,613.8v2.8h-56.8v-2.8H1299z M1299,619.4v2.8h-56.8v-2.8H1299z M1299,625.1v2.8h-56.8v-2.8H1299z
			 M1299,630.8v2.8h-56.8v-2.8H1299z"/>
		<path class="st7" d="M1258.5,642c3.9-1.7,7.9-2.5,12.1-2.5c4.2,0,8.3,0.8,12.1,2.5c3.9,1.7,7.2,3.9,10,6.7c2.8,2.8,5,6.1,6.7,10
			c1.7,3.8,2.5,7.9,2.5,12.1c0,4.2-0.8,8.3-2.5,12.1c-1.7,3.8-3.9,7.2-6.7,10c-2.8,2.8-6.1,5-10,6.7c-3.8,1.7-7.9,2.5-12.1,2.5
			c-4.2,0-8.3-0.8-12.1-2.5c-3.8-1.7-7.2-3.9-10-6.7c-2.8-2.8-5-6.1-6.7-10c-1.7-3.9-2.5-7.9-2.5-12.1c0-4.2,0.8-8.3,2.5-12.1
			c1.7-3.9,3.9-7.2,6.7-10C1251.3,645.9,1254.6,643.7,1258.5,642z M1281.6,644.6c-3.5-1.5-7.2-2.2-11-2.2s-7.5,0.8-11,2.2
			c-3.5,1.5-6.5,3.5-9.1,6.1c-2.5,2.5-4.6,5.6-6.1,9.1c-1.5,3.5-2.2,7.2-2.2,11s0.8,7.5,2.2,11c1.5,3.5,3.5,6.5,6.1,9.1
			c2.5,2.5,5.6,4.6,9.1,6.1c3.5,1.5,7.2,2.2,11,2.2s7.5-0.8,11-2.2c3.5-1.5,6.5-3.5,9.1-6.1c2.5-2.5,4.6-5.6,6.1-9.1
			c1.5-3.5,2.2-7.2,2.2-11s-0.8-7.5-2.2-11c-1.5-3.5-3.5-6.5-6.1-9.1C1288.1,648.1,1285.1,646.1,1281.6,644.6z M1260.7,647.2
			c3.2-1.4,6.5-2,9.9-2c3.5,0,6.8,0.7,9.9,2s5.9,3.2,8.1,5.4c2.3,2.3,4.1,5,5.4,8.1c1.4,3.2,2,6.5,2,9.9c0,3.5-0.7,6.8-2,9.9
			c-1.4,3.2-3.2,5.9-5.4,8.1c-2.3,2.3-5,4.1-8.1,5.4c-3.2,1.4-6.5,2-9.9,2c-3.5,0-6.8-0.7-9.9-2c-3.2-1.4-5.9-3.2-8.1-5.4
			c-2.3-2.3-4.1-5-5.4-8.1c-1.4-3.2-2-6.5-2-9.9c0-3.5,0.7-6.8,2-9.9c1.4-3.2,3.2-5.9,5.4-8.1
			C1254.8,650.4,1257.5,648.6,1260.7,647.2z M1279.4,649.8c-2.8-1.2-5.7-1.8-8.8-1.8s-6,0.6-8.8,1.8c-2.8,1.2-5.2,2.8-7.3,4.8
			c-2,2-3.6,4.4-4.8,7.3c-1.2,2.8-1.8,5.7-1.8,8.8c0,3.1,0.6,6,1.8,8.8c1.2,2.8,2.8,5.2,4.8,7.3c2,2,4.4,3.6,7.3,4.8
			c2.8,1.2,5.7,1.8,8.8,1.8s6-0.6,8.8-1.8c2.8-1.2,5.2-2.8,7.3-4.8c2-2,3.6-4.4,4.8-7.3c1.2-2.8,1.8-5.7,1.8-8.8
			c0-3.1-0.6-6-1.8-8.8c-1.2-2.8-2.8-5.2-4.8-7.3C1284.6,652.7,1282.2,651,1279.4,649.8z M1260.6,653.6c3-1.8,6.4-2.7,10-2.7
			s6.9,0.9,10,2.7c3,1.8,5.5,4.2,7.2,7.2c1.8,3,2.7,6.4,2.7,10s-0.9,6.9-2.7,10c-1.8,3-4.2,5.5-7.2,7.2c-3,1.8-6.4,2.7-10,2.7
			s-6.9-0.9-10-2.7c-3-1.8-5.5-4.2-7.2-7.2c-1.8-3-2.7-6.4-2.7-10s0.9-6.9,2.7-10C1255.2,657.7,1257.6,655.3,1260.6,653.6z
			 M1282.6,658.7c-3.3-3.3-7.3-5-12-5s-8.7,1.7-12,5c-3.3,3.3-5,7.3-5,12.1s1.7,8.7,5,12.1c3.3,3.3,7.3,5,12,5s8.7-1.7,12-5
			c3.3-3.3,5-7.3,5-12.1C1287.6,666.1,1286,662,1282.6,658.7z M1260.6,660.7c2.8-2.8,6.1-4.2,10-4.2s7.3,1.4,10,4.2
			c2.8,2.8,4.2,6.1,4.2,10c0,3.9-1.4,7.3-4.2,10c-2.8,2.8-6.1,4.2-10,4.2c-3.9,0-7.3-1.4-10-4.2c-2.8-2.8-4.2-6.1-4.2-10
			S1257.8,663.5,1260.6,660.7z M1278.6,662.7c-2.2-2.2-4.9-3.3-8-3.3c-3.1,0-5.8,1.1-8,3.3c-2.2,2.2-3.3,4.9-3.3,8
			c0,3.1,1.1,5.8,3.3,8c2.2,2.2,4.9,3.3,8,3.3c3.1,0,5.8-1.1,8-3.3s3.3-4.9,3.3-8C1282,667.6,1280.8,665,1278.6,662.7z"/>
		<path class="st7" d="M1294.1,711.2h-51.9v-2.8h56.8v3.4l-56.8,32.8v-3.3L1294.1,711.2z M1286.3,714l-5.2,2.8h-38.9V714H1286.3z
			 M1299,715v3.3l-56.8,32.9v-3.3L1299,715z M1276.1,719.7l-5.2,2.8h-28.7v-2.8H1276.1z M1299,721.7v3.3l-56.8,32.8v-3.4L1299,721.7
			z M1299,728.4v3.3l-51.9,30h51.9v2.8h-56.8v-3.4L1299,728.4z M1255.3,758.8l4.8-2.8h38.9v2.8H1255.3z M1265.1,753.2l5.2-2.8h28.7
			v2.8H1265.1z"/>
	</g>
</g>
</svg>
