<?xml version="1.0" encoding="utf-8"?>
<!-- Generator: Adobe Illustrator 24.2.3, SVG Export Plug-In . SVG Version: 6.00 Build 0)  -->
<svg version="1.1" id="Layer_1" xmlns="http://www.w3.org/2000/svg" xmlns:xlink="http://www.w3.org/1999/xlink" x="0px" y="0px"
	 viewBox="0 0 1366 178" style="enable-background:new 0 0 1366 178;" xml:space="preserve">
<style type="text/css">
	.st0{display:none;}
	.st1{display:inline;fill:#1E6091;}
	.st2{fill:#1E6091;}
	.st3{fill:#34A0A4;}
	.st4{fill:#D9ED92;}
</style>
<g class="st0">
	<path class="st1" d="M-1.56,144.22c6.27-4.19,12.59-8.09,19.02-11.91c6.42-3.81,12.85-7.59,19.39-11.18
		c13.04-7.25,26.29-14.12,39.68-20.73c13.42-6.54,26.98-12.8,40.69-18.74c6.87-2.92,13.73-5.89,20.67-8.67
		c3.47-1.39,6.91-2.85,10.4-4.19l10.46-4.06c3.48-1.38,7-2.65,10.5-3.95l10.53-3.88l10.6-3.71c3.53-1.24,7.06-2.49,10.63-3.63
		c7.12-2.33,14.22-4.74,21.4-6.88l10.75-3.3l10.82-3.1c28.86-8.22,58.18-15.11,87.9-20.06c29.7-5.03,59.79-8.17,90-9.3
		c7.56-0.22,15.12-0.29,22.68-0.42l22.7,0.37c7.56,0.38,15.13,0.74,22.69,1.19l11.32,1.03l5.66,0.52l2.83,0.26l2.82,0.34
		c30.12,3.36,59.94,9.23,89.09,17.04c3.66,0.91,7.27,2.02,10.89,3.06l10.85,3.16l10.76,3.4l5.38,1.71l5.33,1.81l10.66,3.63
		c3.54,1.23,7.05,2.53,10.58,3.8c7.07,2.5,14.03,5.2,21.03,7.83c6.97,2.68,13.91,5.4,20.84,8.15l20.7,8.32l41.24,16.59
		c27.52,10.76,55.1,21.17,83.23,29.61c28.11,8.51,56.65,15.45,85.6,20.24c28.96,4.71,58.24,7.23,87.63,7.91
		c29.43,0.67,58.89-0.23,88.18-2.9c7.33-0.58,14.63-1.5,21.94-2.32c3.66-0.37,7.29-0.94,10.93-1.45c3.64-0.53,7.29-1,10.92-1.57
		l10.87-1.83c1.81-0.32,3.63-0.59,5.43-0.94l5.41-1.06c3.6-0.72,7.22-1.37,10.81-2.15l10.76-2.4c14.31-3.35,28.51-7.15,42.53-11.56
		c14.01-4.43,27.84-9.42,41.4-15.07c13.54-5.67,26.89-11.86,39.74-18.95c6.44-3.51,12.75-7.25,18.93-11.18
		c1.55-0.98,3.08-1.98,4.59-3.01c1.53-1.01,3.02-2.05,4.52-3.1c2.95-2.1,5.97-4.3,8.63-6.52l4.02,4.46
		c-2.94,2.65-5.82,4.94-8.83,7.25c-1.5,1.14-3,2.27-4.54,3.36c-1.52,1.11-3.05,2.19-4.6,3.25c-6.19,4.24-12.5,8.31-18.99,12.06
		c-3.22,1.91-6.51,3.71-9.78,5.54l-4.96,2.64c-1.65,0.89-3.31,1.76-4.99,2.59c-3.35,1.68-6.68,3.4-10.08,4.96l-5.08,2.4
		c-1.7,0.79-3.42,1.52-5.13,2.28c-13.69,6.06-27.68,11.43-41.85,16.24c-14.18,4.81-28.6,8.82-43.11,12.48l-10.91,2.6
		c-3.64,0.85-7.31,1.56-10.97,2.35l-5.49,1.16c-1.83,0.38-3.67,0.69-5.51,1.04l-11.03,2.03c-14.75,2.42-29.56,4.61-44.44,6.06
		c-29.74,3.06-59.66,4.31-89.53,3.98c-29.92-0.31-59.9-2.51-89.55-6.95c-29.66-4.44-59-10.97-87.81-19.15
		c-3.62-0.97-7.18-2.1-10.77-3.16c-3.58-1.09-7.17-2.14-10.74-3.25l-10.67-3.43l-5.34-1.7l-5.31-1.78l-10.62-3.56l-10.56-3.69
		c-7.05-2.43-14.03-5.01-21.04-7.52c-27.99-10.08-55.71-20.57-83.61-30c-6.98-2.32-13.94-4.71-20.95-6.89
		c-3.5-1.1-6.99-2.24-10.5-3.31l-10.53-3.14l-5.26-1.56l-5.29-1.45l-10.57-2.92l-10.61-2.68c-3.54-0.88-7.06-1.82-10.63-2.57
		c-7.11-1.57-14.2-3.25-21.35-4.58l-10.7-2.11l-10.75-1.79c-14.33-2.39-28.73-4.16-43.16-5.61l-2.71-0.28l-2.71-0.2l-5.43-0.39
		l-10.85-0.79l-21.74-0.98l-21.78-0.21L422.85,34c-29.07,1.01-58.12,3.77-87.03,7.78c-28.9,4.1-57.7,9.42-86.27,16.04l-10.71,2.51
		l-10.66,2.72c-7.13,1.75-14.19,3.76-21.27,5.7c-3.55,0.95-7.07,2-10.59,3.04l-10.57,3.12l-10.52,3.29
		c-3.51,1.11-7.02,2.18-10.5,3.36l-10.47,3.48c-3.5,1.14-6.95,2.41-10.43,3.61c-6.96,2.38-13.86,4.96-20.77,7.49
		c-13.77,5.22-27.53,10.5-41.13,16.19C68.3,117.96,54.78,123.86,41.35,130c-13.42,6.11-26.79,12.54-39.78,19.34L-1.56,144.22z"/>
</g>
<g>
	<path class="st2" d="M-1.56,117.03c5.36-2.25,10.76-4.34,16.25-6.39c5.48-2.04,10.98-4.08,16.56-6c11.14-3.9,22.47-7.58,33.9-11.13
		c11.46-3.52,23.05-6.87,34.77-10.06c5.87-1.57,11.74-3.16,17.66-4.66c2.96-0.75,5.9-1.53,8.89-2.25l8.93-2.18
		c2.97-0.74,5.98-1.42,8.97-2.12l9-2.08l9.06-1.99c3.02-0.67,6.04-1.33,9.08-1.95c6.08-1.25,12.15-2.54,18.29-3.69l9.19-1.77
		l9.24-1.67c24.66-4.42,49.71-8.12,75.11-10.77c25.38-2.7,51.08-4.39,76.9-4.99c6.46-0.12,12.92-0.16,19.37-0.23l19.4,0.2
		c6.46,0.21,12.93,0.4,19.39,0.64l9.67,0.55l4.83,0.28l2.42,0.14l2.41,0.18c25.74,1.8,51.21,4.96,76.12,9.15
		c3.13,0.49,6.21,1.08,9.31,1.64l9.27,1.7l9.2,1.83l4.59,0.91l4.56,0.97l9.11,1.95c3.03,0.67,6.03,1.36,9.04,2.04
		c6.04,1.34,11.99,2.79,17.97,4.2c5.95,1.44,11.89,2.9,17.8,4.38l17.69,4.47l35.24,8.91c23.52,5.78,47.08,11.37,71.12,15.9
		c24.02,4.56,48.41,8.3,73.14,10.87c24.74,2.53,49.76,3.88,74.87,4.25c25.14,0.36,50.31-0.12,75.34-1.56
		c6.27-0.31,12.5-0.81,18.74-1.25c3.13-0.2,6.23-0.5,9.34-0.78c3.11-0.28,6.22-0.54,9.33-0.84l9.29-0.99
		c1.55-0.17,3.1-0.31,4.64-0.5l4.62-0.57c3.08-0.39,6.17-0.74,9.24-1.16l9.19-1.28c12.23-1.8,24.36-3.84,36.34-6.21
		c11.97-2.38,23.79-5.05,35.37-8.09c11.57-3.05,22.97-6.36,33.95-10.17c5.5-1.89,10.9-3.9,16.17-6c1.32-0.52,2.63-1.06,3.92-1.62
		c1.31-0.54,2.58-1.11,3.86-1.67c2.52-1.13,5.1-2.31,7.37-3.5l3.43,2.4c-2.51,1.42-4.97,2.66-7.55,3.89
		c-1.28,0.61-2.57,1.22-3.88,1.8c-1.3,0.6-2.61,1.18-3.93,1.74c-5.29,2.28-10.68,4.47-16.22,6.48c-2.75,1.03-5.56,1.99-8.35,2.98
		l-4.24,1.42c-1.41,0.48-2.83,0.94-4.26,1.39c-2.86,0.9-5.71,1.82-8.61,2.66l-4.34,1.29c-1.45,0.43-2.92,0.82-4.38,1.23
		c-11.7,3.25-23.65,6.14-35.76,8.72s-24.44,4.73-36.83,6.7l-9.33,1.4c-3.11,0.45-6.25,0.84-9.37,1.26l-4.69,0.62
		c-1.56,0.21-3.14,0.37-4.71,0.56l-9.43,1.08c-12.61,1.3-25.26,2.48-37.97,3.25c-25.41,1.64-50.97,2.32-76.5,2.14
		c-25.56-0.16-51.18-1.35-76.52-3.74c-25.34-2.38-50.41-5.9-75.02-10.28c-3.09-0.52-6.14-1.13-9.2-1.69
		c-3.06-0.58-6.13-1.15-9.18-1.75l-9.12-1.84l-4.56-0.91l-4.54-0.96l-9.07-1.91l-9.02-1.98c-6.03-1.3-11.99-2.69-17.98-4.04
		c-23.92-5.41-47.6-11.04-71.44-16.11c-5.97-1.25-11.91-2.53-17.9-3.7c-2.99-0.6-5.97-1.2-8.97-1.78l-9-1.69l-4.5-0.84l-4.52-0.78
		l-9.03-1.57l-9.07-1.44c-3.02-0.47-6.04-0.98-9.08-1.38c-6.08-0.84-12.13-1.74-18.24-2.46l-9.14-1.13l-9.18-0.96
		c-12.24-1.28-24.55-2.23-36.88-3.01l-2.31-0.15l-2.32-0.11l-4.64-0.21l-9.27-0.43l-18.58-0.52L379.7,57.6l-18.63,0.25
		c-24.84,0.55-49.66,2.02-74.36,4.18c-24.7,2.2-49.3,5.06-73.71,8.62l-9.15,1.35l-9.11,1.46c-6.09,0.94-12.12,2.02-18.17,3.06
		c-3.03,0.51-6.04,1.07-9.05,1.63l-9.03,1.67l-8.99,1.76c-3,0.6-6,1.17-8.97,1.81l-8.95,1.87c-2.99,0.62-5.94,1.3-8.91,1.94
		c-5.95,1.28-11.84,2.66-17.75,4.03c-11.76,2.8-23.52,5.64-35.15,8.7c-11.64,3.03-23.2,6.19-34.67,9.49
		c-11.46,3.28-22.89,6.73-33.99,10.38L-1.56,117.03z"/>
	<path class="st3" d="M1354.89,115.95c-5.36-2.25-10.76-4.34-16.25-6.39c-5.48-2.04-10.98-4.08-16.56-6
		c-11.14-3.9-22.47-7.58-33.9-11.13c-11.46-3.52-23.05-6.87-34.77-10.06c-5.87-1.57-11.74-3.16-17.66-4.66
		c-2.96-0.75-5.9-1.53-8.89-2.25l-8.93-2.18c-2.97-0.74-5.98-1.42-8.97-2.12l-9-2.08l-9.06-1.99c-3.02-0.67-6.04-1.33-9.08-1.95
		c-6.08-1.25-12.15-2.54-18.29-3.69l-9.19-1.77L1145.1,58c-24.66-4.42-49.71-8.12-75.11-10.77c-25.38-2.7-51.08-4.39-76.9-4.99
		c-6.46-0.12-12.92-0.16-19.37-0.23l-19.4,0.2c-6.46,0.21-12.93,0.4-19.39,0.64l-9.67,0.55l-4.83,0.28l-2.42,0.14L915.6,44
		c-25.74,1.8-51.21,4.96-76.12,9.15c-3.13,0.49-6.21,1.08-9.31,1.64l-9.27,1.7l-9.2,1.83l-4.59,0.91l-4.56,0.97l-9.11,1.95
		c-3.03,0.67-6.03,1.36-9.04,2.04c-6.04,1.34-11.99,2.79-17.97,4.2c-5.95,1.44-11.89,2.9-17.8,4.38l-17.69,4.47l-35.24,8.91
		c-23.52,5.78-47.08,11.37-71.12,15.9c-24.02,4.56-48.41,8.3-73.14,10.87c-24.74,2.53-49.76,3.88-74.87,4.25
		c-25.14,0.36-50.31-0.12-75.34-1.56c-6.27-0.31-12.5-0.81-18.74-1.25c-3.13-0.2-6.23-0.5-9.34-0.78c-3.11-0.28-6.22-0.54-9.33-0.84
		l-9.29-0.99c-1.55-0.17-3.1-0.31-4.64-0.5l-4.62-0.57c-3.08-0.39-6.17-0.74-9.24-1.16l-9.19-1.28c-12.23-1.8-24.36-3.84-36.34-6.21
		c-11.97-2.38-23.79-5.05-35.37-8.09c-11.57-3.05-22.97-6.36-33.95-10.17c-5.5-1.89-10.9-3.9-16.17-6
		c-1.32-0.52-2.63-1.06-3.92-1.62c-1.31-0.54-2.58-1.11-3.86-1.67c-2.52-1.13-5.1-2.31-7.37-3.5l-3.43,2.4
		c2.51,1.42,4.97,2.66,7.55,3.89c1.28,0.61,2.57,1.22,3.88,1.8c1.3,0.6,2.61,1.18,3.93,1.74c5.29,2.28,10.68,4.47,16.22,6.48
		c2.75,1.03,5.56,1.99,8.35,2.98l4.24,1.42c1.41,0.48,2.83,0.94,4.26,1.39c2.86,0.9,5.71,1.82,8.61,2.66l4.34,1.29
		c1.45,0.43,2.92,0.82,4.38,1.23c11.7,3.25,23.65,6.14,35.76,8.72c12.11,2.59,24.44,4.73,36.83,6.7l9.33,1.4
		c3.11,0.45,6.25,0.84,9.37,1.26l4.69,0.62c1.56,0.21,3.14,0.37,4.71,0.56l9.43,1.08c12.61,1.3,25.26,2.48,37.97,3.25
		c25.41,1.64,50.97,2.32,76.5,2.14c25.56-0.16,51.18-1.35,76.52-3.74c25.34-2.38,50.41-5.9,75.02-10.28c3.09-0.52,6.14-1.13,9.2-1.7
		c3.06-0.58,6.13-1.15,9.18-1.75l9.12-1.84l4.56-0.91l4.54-0.96l9.07-1.91l9.02-1.98c6.03-1.3,11.99-2.69,17.98-4.04
		c23.92-5.41,47.6-11.04,71.44-16.11c5.97-1.25,11.91-2.53,17.9-3.7c2.99-0.6,5.97-1.2,8.97-1.78l9-1.69l4.5-0.84l4.52-0.78
		l9.03-1.57l9.07-1.44c3.02-0.47,6.04-0.98,9.08-1.38c6.08-0.84,12.13-1.74,18.24-2.46l9.14-1.13l9.18-0.96
		c12.24-1.28,24.55-2.23,36.88-3.01l2.31-0.15l2.32-0.11l4.64-0.21l9.27-0.43l18.58-0.52l18.61-0.11l18.63,0.25
		c24.84,0.55,49.66,2.02,74.36,4.18c24.7,2.2,49.3,5.06,73.71,8.62l9.15,1.35l9.11,1.46c6.09,0.94,12.12,2.02,18.17,3.06
		c3.03,0.51,6.04,1.07,9.05,1.63l9.03,1.67l8.99,1.76c3,0.6,6,1.17,8.97,1.81l8.95,1.87c2.99,0.62,5.94,1.3,8.91,1.94
		c5.95,1.28,11.84,2.66,17.75,4.03c11.76,2.8,23.52,5.64,35.15,8.7c11.64,3.03,23.2,6.19,34.67,9.49
		c11.46,3.28,22.89,6.73,33.99,10.38L1354.89,115.95z"/>
	<path class="st4" d="M197.52,117.03c5.36-2.25,10.76-4.34,16.25-6.39c5.48-2.04,10.98-4.08,16.56-6
		c11.14-3.9,22.47-7.58,33.9-11.13c11.46-3.52,23.05-6.87,34.77-10.06c5.87-1.57,11.74-3.16,17.66-4.66
		c2.96-0.75,5.9-1.53,8.89-2.25l8.93-2.18c2.97-0.74,5.98-1.42,8.97-2.12l9-2.08l9.06-1.99c3.02-0.67,6.04-1.33,9.08-1.95
		c6.08-1.25,12.15-2.54,18.29-3.69l9.19-1.77l9.24-1.67c24.66-4.42,49.71-8.12,75.11-10.77c25.38-2.7,51.08-4.39,76.9-4.99
		c6.46-0.12,12.92-0.16,19.37-0.23l19.4,0.2c6.46,0.21,12.93,0.4,19.39,0.64l9.67,0.55l4.83,0.28l2.42,0.14l2.41,0.18
		c25.74,1.8,51.21,4.96,76.12,9.15c3.13,0.49,6.21,1.08,9.31,1.64l9.27,1.7l9.2,1.83l4.59,0.91l4.56,0.97l9.11,1.95
		c3.03,0.67,6.03,1.36,9.04,2.04c6.04,1.34,11.99,2.79,17.97,4.2c5.95,1.44,11.89,2.9,17.8,4.38l17.69,4.47l35.24,8.91
		c23.52,5.78,47.08,11.37,71.12,15.9c24.02,4.56,48.41,8.3,73.14,10.87c24.74,2.53,49.76,3.88,74.87,4.25
		c25.14,0.36,50.31-0.12,75.34-1.56c6.27-0.31,12.5-0.81,18.74-1.25c3.13-0.2,6.23-0.5,9.34-0.78c3.11-0.28,6.22-0.54,9.33-0.84
		l9.29-0.99c1.55-0.17,3.1-0.31,4.64-0.5l4.62-0.57c3.08-0.39,6.17-0.74,9.24-1.16l9.19-1.28c12.23-1.8,24.36-3.84,36.34-6.21
		c11.97-2.38,23.79-5.05,35.37-8.09c11.57-3.05,22.97-6.36,33.95-10.17c5.5-1.89,10.9-3.9,16.17-6c1.32-0.52,2.63-1.06,3.92-1.62
		c1.31-0.54,2.58-1.11,3.86-1.67c2.52-1.13,5.1-2.31,7.37-3.5l3.43,2.4c-2.51,1.42-4.97,2.66-7.55,3.89
		c-1.28,0.61-2.57,1.22-3.88,1.8c-1.3,0.6-2.61,1.18-3.93,1.74c-5.29,2.28-10.68,4.47-16.22,6.48c-2.75,1.03-5.56,1.99-8.35,2.98
		l-4.24,1.42c-1.41,0.48-2.83,0.94-4.26,1.39c-2.86,0.9-5.71,1.82-8.61,2.66l-4.34,1.29c-1.45,0.43-2.92,0.82-4.38,1.23
		c-11.7,3.25-23.65,6.14-35.76,8.72s-24.44,4.73-36.83,6.7l-9.33,1.4c-3.11,0.45-6.25,0.84-9.37,1.26l-4.69,0.62
		c-1.56,0.21-3.14,0.37-4.71,0.56l-9.43,1.08c-12.61,1.3-25.26,2.48-37.97,3.25c-25.41,1.64-50.97,2.32-76.5,2.14
		c-25.56-0.16-51.18-1.35-76.52-3.74c-25.34-2.38-50.41-5.9-75.02-10.28c-3.09-0.52-6.14-1.13-9.2-1.69
		c-3.06-0.58-6.13-1.15-9.18-1.75l-9.12-1.84l-4.56-0.91l-4.54-0.96l-9.07-1.91l-9.02-1.98c-6.03-1.3-11.99-2.69-17.98-4.04
		c-23.92-5.41-47.6-11.04-71.44-16.11c-5.97-1.25-11.91-2.53-17.9-3.7c-2.99-0.6-5.97-1.2-8.97-1.78l-9-1.69l-4.5-0.84l-4.52-0.78
		l-9.03-1.57l-9.07-1.44c-3.02-0.47-6.04-0.98-9.08-1.38c-6.08-0.84-12.13-1.74-18.24-2.46l-9.14-1.13l-9.18-0.96
		c-12.24-1.28-24.55-2.23-36.88-3.01l-2.31-0.15l-2.32-0.11l-4.64-0.21l-9.27-0.43l-18.58-0.52l-18.57-0.11l-18.63,0.25
		c-24.84,0.55-49.66,2.02-74.36,4.18c-24.7,2.2-49.3,5.06-73.71,8.62l-9.15,1.35l-9.11,1.46c-6.09,0.94-12.12,2.02-18.17,3.06
		c-3.03,0.51-6.04,1.07-9.05,1.63l-9.03,1.67l-8.99,1.76c-3,0.6-6,1.17-8.97,1.81l-8.95,1.87c-2.99,0.62-5.94,1.3-8.91,1.94
		c-5.95,1.28-11.84,2.66-17.75,4.03c-11.76,2.8-23.52,5.64-35.15,8.7c-11.64,3.03-23.2,6.19-34.67,9.49
		c-11.46,3.28-22.89,6.73-33.99,10.38L197.52,117.03z"/>
	<path class="st4" d="M197.52,117.03c5.36-2.25,10.76-4.34,16.25-6.39c5.48-2.04,10.98-4.08,16.56-6
		c11.14-3.9,22.47-7.58,33.9-11.13c11.46-3.52,23.05-6.87,34.77-10.06c5.87-1.57,11.74-3.16,17.66-4.66
		c2.96-0.75,5.9-1.53,8.89-2.25l8.93-2.18c2.97-0.74,5.98-1.42,8.97-2.12l9-2.08l9.06-1.99c3.02-0.67,6.04-1.33,9.08-1.95
		c6.08-1.25,12.15-2.54,18.29-3.69l9.19-1.77l9.24-1.67c24.66-4.42,49.71-8.12,75.11-10.77c25.38-2.7,51.08-4.39,76.9-4.99
		c6.46-0.12,12.92-0.16,19.37-0.23l19.4,0.2c6.46,0.21,12.93,0.4,19.39,0.64l9.67,0.55l4.83,0.28l2.42,0.14l2.41,0.18
		c25.74,1.8,51.21,4.96,76.12,9.15c3.13,0.49,6.21,1.08,9.31,1.64l9.27,1.7l9.2,1.83l4.59,0.91l4.56,0.97l9.11,1.95
		c3.03,0.67,6.03,1.36,9.04,2.04c6.04,1.34,11.99,2.79,17.97,4.2c5.95,1.44,11.89,2.9,17.8,4.38l17.69,4.47l35.24,8.91
		c23.52,5.78,47.08,11.37,71.12,15.9c24.02,4.56,48.41,8.3,73.14,10.87c24.74,2.53,49.76,3.88,74.87,4.25
		c25.14,0.36,50.31-0.12,75.34-1.56c6.27-0.31,12.5-0.81,18.74-1.25c3.13-0.2,6.23-0.5,9.34-0.78c3.11-0.28,6.22-0.54,9.33-0.84
		l9.29-0.99c1.55-0.17,3.1-0.31,4.64-0.5l4.62-0.57c3.08-0.39,6.17-0.74,9.24-1.16l9.19-1.28c12.23-1.8,24.36-3.84,36.34-6.21
		c11.97-2.38,23.79-5.05,35.37-8.09c11.57-3.05,22.97-6.36,33.95-10.17c5.5-1.89,10.9-3.9,16.17-6c1.32-0.52,2.63-1.06,3.92-1.62
		c1.31-0.54,2.58-1.11,3.86-1.67c2.52-1.13,5.1-2.31,7.37-3.5l3.43,2.4c-2.51,1.42-4.97,2.66-7.55,3.89
		c-1.28,0.61-2.57,1.22-3.88,1.8c-1.3,0.6-2.61,1.18-3.93,1.74c-5.29,2.28-10.68,4.47-16.22,6.48c-2.75,1.03-5.56,1.99-8.35,2.98
		l-4.24,1.42c-1.41,0.48-2.83,0.94-4.26,1.39c-2.86,0.9-5.71,1.82-8.61,2.66l-4.34,1.29c-1.45,0.43-2.92,0.82-4.38,1.23
		c-11.7,3.25-23.65,6.14-35.76,8.72s-24.44,4.73-36.83,6.7l-9.33,1.4c-3.11,0.45-6.25,0.84-9.37,1.26l-4.69,0.62
		c-1.56,0.21-3.14,0.37-4.71,0.56l-9.43,1.08c-12.61,1.3-25.26,2.48-37.97,3.25c-25.41,1.64-50.97,2.32-76.5,2.14
		c-25.56-0.16-51.18-1.35-76.52-3.74c-25.34-2.38-50.41-5.9-75.02-10.28c-3.09-0.52-6.14-1.13-9.2-1.69
		c-3.06-0.58-6.13-1.15-9.18-1.75l-9.12-1.84l-4.56-0.91l-4.54-0.96l-9.07-1.91l-9.02-1.98c-6.03-1.3-11.99-2.69-17.98-4.04
		c-23.92-5.41-47.6-11.04-71.44-16.11c-5.97-1.25-11.91-2.53-17.9-3.7c-2.99-0.6-5.97-1.2-8.97-1.78l-9-1.69l-4.5-0.84l-4.52-0.78
		l-9.03-1.57l-9.07-1.44c-3.02-0.47-6.04-0.98-9.08-1.38c-6.08-0.84-12.13-1.74-18.24-2.46l-9.14-1.13l-9.18-0.96
		c-12.24-1.28-24.55-2.23-36.88-3.01l-2.31-0.15l-2.32-0.11l-4.64-0.21l-9.27-0.43l-18.58-0.52l-18.57-0.11l-18.63,0.25
		c-24.84,0.55-49.66,2.02-74.36,4.18c-24.7,2.2-49.3,5.06-73.71,8.62l-9.15,1.35l-9.11,1.46c-6.09,0.94-12.12,2.02-18.17,3.06
		c-3.03,0.51-6.04,1.07-9.05,1.63l-9.03,1.67l-8.99,1.76c-3,0.6-6,1.17-8.97,1.81l-8.95,1.87c-2.99,0.62-5.94,1.3-8.91,1.94
		c-5.95,1.28-11.84,2.66-17.75,4.03c-11.76,2.8-23.52,5.64-35.15,8.7c-11.64,3.03-23.2,6.19-34.67,9.49
		c-11.46,3.28-22.89,6.73-33.99,10.38L197.52,117.03z"/>
	<path class="st2" d="M1166.92,74.46c-2.51,1.42-4.97,2.66-7.55,3.89c-1.28,0.61-2.56,1.22-3.87,1.81c-1.3,0.6-2.61,1.18-3.94,1.74
		c-5.29,2.28-10.68,4.47-16.22,6.48c-2.76,1.03-5.56,1.99-8.36,2.98l-4.24,1.42c-1.41,0.47-2.83,0.94-4.26,1.38
		c-2.86,0.9-5.71,1.83-8.61,2.67l-4.34,1.28c-1.45,0.43-2.92,0.82-4.38,1.23c-11.7,3.25-23.65,6.14-35.76,8.72
		c-12.12,2.58-24.44,4.73-36.83,6.7l-9.33,1.4c-3.11,0.45-6.25,0.84-9.37,1.26l-4.69,0.62c-1.56,0.21-3.14,0.37-4.71,0.55
		l-9.42,1.09c-12.6,1.3-25.26,2.47-37.97,3.25c-25.42,1.64-50.97,2.32-76.5,2.14c-21.72-0.14-43.47-1.01-65.06-2.74l-6.37-8.02
		c23.68,2.32,47.61,3.58,71.62,3.93c25.15,0.35,50.32-0.12,75.34-1.56c6.27-0.3,12.5-0.81,18.75-1.25c3.13-0.2,6.23-0.5,9.34-0.77
		c3.11-0.28,6.22-0.54,9.33-0.84l9.29-0.99c1.55-0.16,3.1-0.31,4.64-0.5l4.62-0.57c3.08-0.39,6.18-0.74,9.24-1.16l9.19-1.29
		c12.23-1.8,24.36-3.84,36.34-6.2c11.97-2.38,23.79-5.06,35.37-8.09c11.57-3.05,22.97-6.37,33.95-10.18c5.5-1.89,10.89-3.89,16.17-6
		c1.32-0.52,2.63-1.06,3.92-1.62c1.31-0.55,2.59-1.1,3.86-1.67c2.52-1.12,5.1-2.31,7.37-3.49L1166.92,74.46z"/>
	<path class="st3" d="M540.49,121.37c-21.16,1.66-42.46,2.49-63.73,2.64c-25.52,0.18-51.09-0.5-76.5-2.14
		c-12.71-0.78-25.37-1.96-37.97-3.25l-9.42-1.09c-1.57-0.19-3.14-0.35-4.72-0.55l-4.68-0.62c-3.13-0.43-6.26-0.81-9.37-1.26
		l-9.33-1.4c-12.39-1.96-24.72-4.11-36.83-6.7c-12.11-2.58-24.06-5.47-35.76-8.72c-1.46-0.41-2.93-0.8-4.38-1.23l-4.34-1.28
		c-2.91-0.84-5.75-1.76-8.61-2.67c-1.43-0.45-2.85-0.91-4.25-1.38l-4.24-1.42c-2.79-0.99-5.6-1.95-8.36-2.98
		c-5.54-2.01-10.93-4.2-16.23-6.48c-1.32-0.57-2.63-1.15-3.93-1.74c-1.31-0.59-2.59-1.19-3.88-1.81c-2.57-1.23-5.03-2.47-7.54-3.89
		l3.43-2.39c2.27,1.18,4.85,2.37,7.37,3.49c1.27,0.57,2.55,1.13,3.86,1.67c1.29,0.55,2.6,1.09,3.92,1.62
		c5.28,2.11,10.67,4.12,16.17,6c10.98,3.81,22.38,7.12,33.95,10.18c11.59,3.03,23.4,5.71,35.37,8.09c11.98,2.36,24.11,4.4,36.34,6.2
		l9.19,1.29c3.07,0.42,6.16,0.77,9.24,1.16l4.62,0.57c1.54,0.19,3.09,0.34,4.64,0.5l9.29,0.99c3.11,0.3,6.22,0.56,9.33,0.84
		c3.11,0.27,6.21,0.57,9.34,0.77c6.25,0.44,12.47,0.94,18.75,1.25c25.03,1.44,50.2,1.91,75.34,1.56
		c19.23-0.28,38.42-1.14,57.46-2.66L540.49,121.37z"/>
</g>
</svg>
