<?xml version="1.0" encoding="utf-8"?>
<!-- Generator: Adobe Illustrator 24.2.3, SVG Export Plug-In . SVG Version: 6.00 Build 0)  -->
<svg version="1.1" id="Layer_1" xmlns="http://www.w3.org/2000/svg" xmlns:xlink="http://www.w3.org/1999/xlink" x="0px" y="0px"
	 viewBox="0 0 1366 178" style="enable-background:new 0 0 1366 178;" xml:space="preserve">
<style type="text/css">
	.st0{display:none;fill:#1E6091;}
	.st1{fill:none;stroke:#D9ED92;stroke-width:10;stroke-miterlimit:10;}
	.st2{fill:none;stroke:#34A0A4;stroke-width:10;stroke-miterlimit:10;}
	.st3{fill:none;stroke:#1E6091;stroke-width:10;stroke-miterlimit:10;}
</style>
<g>
	<path class="st0" d="M-1.6,144.2c6.3-4.2,12.6-8.1,19-11.9c6.4-3.8,12.9-7.6,19.4-11.2c13-7.3,26.3-14.1,39.7-20.7
		c13.4-6.5,27-12.8,40.7-18.7c6.9-2.9,13.7-5.9,20.7-8.7c3.5-1.4,6.9-2.8,10.4-4.2l10.5-4.1c3.5-1.4,7-2.7,10.5-4l10.5-3.9l10.6-3.7
		c3.5-1.2,7.1-2.5,10.6-3.6c7.1-2.3,14.2-4.7,21.4-6.9l10.8-3.3l10.8-3.1c28.9-8.2,58.2-15.1,87.9-20.1c29.7-5,59.8-8.2,90-9.3
		c7.6-0.2,15.1-0.3,22.7-0.4l22.7,0.4c7.6,0.4,15.1,0.7,22.7,1.2l11.3,1l5.7,0.5l2.8,0.3l2.8,0.3c30.1,3.4,59.9,9.2,89.1,17
		c3.7,0.9,7.3,2,10.9,3.1l10.8,3.2l10.8,3.4l5.4,1.7l5.3,1.8l10.7,3.6c3.5,1.2,7,2.5,10.6,3.8c7.1,2.5,14,5.2,21,7.8
		c7,2.7,13.9,5.4,20.8,8.2l20.7,8.3l41.2,16.6c27.5,10.8,55.1,21.2,83.2,29.6c28.1,8.5,56.7,15.4,85.6,20.2
		c29,4.7,58.2,7.2,87.6,7.9c29.4,0.7,58.9-0.2,88.2-2.9c7.3-0.6,14.6-1.5,21.9-2.3c3.7-0.4,7.3-0.9,10.9-1.4c3.6-0.5,7.3-1,10.9-1.6
		l10.9-1.8c1.8-0.3,3.6-0.6,5.4-0.9l5.4-1.1c3.6-0.7,7.2-1.4,10.8-2.1l10.8-2.4c14.3-3.3,28.5-7.2,42.5-11.6
		c14-4.4,27.8-9.4,41.4-15.1c13.5-5.7,26.9-11.9,39.7-19c6.4-3.5,12.8-7.3,18.9-11.2c1.6-1,3.1-2,4.6-3c1.5-1,3-2.1,4.5-3.1
		c2.9-2.1,6-4.3,8.6-6.5l4,4.5c-2.9,2.7-5.8,4.9-8.8,7.3c-1.5,1.1-3,2.3-4.5,3.4c-1.5,1.1-3.1,2.2-4.6,3.3
		c-6.2,4.2-12.5,8.3-19,12.1c-3.2,1.9-6.5,3.7-9.8,5.5l-5,2.6c-1.7,0.9-3.3,1.8-5,2.6c-3.3,1.7-6.7,3.4-10.1,5l-5.1,2.4
		c-1.7,0.8-3.4,1.5-5.1,2.3c-13.7,6.1-27.7,11.4-41.8,16.2c-14.2,4.8-28.6,8.8-43.1,12.5l-10.9,2.6c-3.6,0.9-7.3,1.6-11,2.4
		l-5.5,1.2c-1.8,0.4-3.7,0.7-5.5,1l-11,2c-14.8,2.4-29.6,4.6-44.4,6.1c-29.7,3.1-59.7,4.3-89.5,4c-29.9-0.3-59.9-2.5-89.5-6.9
		c-29.7-4.4-59-11-87.8-19.1c-3.6-1-7.2-2.1-10.8-3.2c-3.6-1.1-7.2-2.1-10.7-3.3l-10.7-3.4l-5.3-1.7l-5.3-1.8l-10.6-3.6l-10.6-3.7
		c-7-2.4-14-5-21-7.5c-28-10.1-55.7-20.6-83.6-30c-7-2.3-13.9-4.7-21-6.9c-3.5-1.1-7-2.2-10.5-3.3l-10.5-3.1l-5.3-1.6l-5.3-1.5
		l-10.6-2.9l-10.6-2.7c-3.5-0.9-7.1-1.8-10.6-2.6c-7.1-1.6-14.2-3.3-21.3-4.6l-10.7-2.1L553,42c-14.3-2.4-28.7-4.2-43.2-5.6
		l-2.7-0.3l-2.7-0.2l-5.4-0.4l-10.9-0.8l-21.7-1l-21.8-0.2L422.9,34c-29.1,1-58.1,3.8-87,7.8c-28.9,4.1-57.7,9.4-86.3,16l-10.7,2.5
		L228.2,63c-7.1,1.8-14.2,3.8-21.3,5.7c-3.6,0.9-7.1,2-10.6,3l-10.6,3.1l-10.5,3.3c-3.5,1.1-7,2.2-10.5,3.4L154.3,85
		c-3.5,1.1-6.9,2.4-10.4,3.6c-7,2.4-13.9,5-20.8,7.5c-13.8,5.2-27.5,10.5-41.1,16.2C68.3,118,54.8,123.9,41.3,130
		c-13.4,6.1-26.8,12.5-39.8,19.3L-1.6,144.2z"/>
</g>
<line class="st1" x1="32.1" y1="89" x2="1337.1" y2="89"/>
<g>
	<line class="st2" x1="1337.2" y1="22" x2="951" y2="22"/>
	<line class="st2" x1="415" y1="22" x2="32" y2="22"/>
	<path class="st2" d="M415,22c37,0,67,30,67,67"/>
	<path class="st2" d="M482,89c0,37,30,67,67,67s67-30,67-67"/>
	<path class="st2" d="M616,89c0-37,30-67,67-67s67,30,67,67"/>
	<path class="st2" d="M750,89c0,37,30,67,67,67s67-30,67-67"/>
	<path class="st2" d="M884,89c0-37,30-67,67-67"/>
</g>
<g>
	<line class="st3" x1="1337.2" y1="22" x2="951" y2="22"/>
	<line class="st3" x1="415" y1="22" x2="32" y2="22"/>
	<path class="st3" d="M415,22c37,0,67,30,67,67"/>
	<path class="st3" d="M482,89c0,37,30,67,67,67s67-30,67-67"/>
	<path class="st3" d="M616,89c0-37,30-67,67-67s67,30,67,67"/>
	<path class="st3" d="M750,89c0,37,30,67,67,67s67-30,67-67"/>
	<path class="st3" d="M884,89c0-37,30-67,67-67"/>
</g>
<g>
	<line class="st2" x1="951" y1="156" x2="1337.2" y2="156"/>
	<line class="st2" x1="32" y1="156" x2="415" y2="156"/>
	<path class="st2" d="M482,89c0,37-30,67-67,67"/>
	<path class="st2" d="M616,89c0-37-30-67-67-67s-67,30-67,67"/>
	<path class="st2" d="M750,89c0,37-30,67-67,67s-67-30-67-67"/>
	<path class="st2" d="M884,89c0-37-30-67-67-67s-67,30-67,67"/>
	<path class="st2" d="M951,156c-37,0-67-30-67-67"/>
</g>
</svg>
